<?xml version="1.0" encoding="utf-8"?>
<!-- Svg Vector Icons : http://www.onlinewebfonts.com/icon -->
<!DOCTYPE svg PUBLIC "-//W3C//DTD SVG 1.1//EN" "http://www.w3.org/Graphics/SVG/1.1/DTD/svg11.dtd">
<svg version="1.1" xmlns="http://www.w3.org/2000/svg" xmlns:xlink="http://www.w3.org/1999/xlink" x="0px" y="0px" viewBox="0 0 256 256" enable-background="new 0 0 256 256" xml:space="preserve">
<metadata> Svg Vector Icons : http://www.onlinewebfonts.com/icon </metadata>
<g><g><g><path fill="#000000" d="M241.7,53.6h-30.2c11.6-11.4,16.1-24.5,11.2-35.8c-4.5-10.3-15.7-16.1-30.9-16.1c-10.5,0-22.6,2.8-34.1,7.8c-12,5.3-22.4,12.6-29.6,20.6c-7.1-8-17.6-15.3-29.6-20.6C86.9,4.4,74.8,1.7,64.3,1.7c-15.1,0-26.4,5.9-30.9,16.1c-5,11.3-0.4,24.4,11.2,35.8H14.4c-2.4,0-4.4,2-4.4,4.4v52.9c0,2.4,2,4.4,4.4,4.4h15.2V250c0,2.4,2,4.4,4.4,4.4h188.1c2.4,0,4.4-2,4.4-4.4V115.2h15.2c2.4,0,4.4-2,4.4-4.4V58C246,55.6,244.1,53.6,241.7,53.6z M168.1,33.5c8.2-3.6,16.8-5.6,23.6-5.6c3.1,0,5.1,0.4,6.2,0.8c-1.8,3.9-9.3,12.2-23.8,18.6c-8.2,3.6-16.8,5.6-23.6,5.6c-3.1,0-5.1-0.4-6.2-0.8C146.1,48.2,153.6,39.9,168.1,33.5z M64.3,27.9c6.8,0,15.4,2,23.6,5.6c14.6,6.4,22,14.7,23.8,18.6c-1.1,0.4-3.1,0.8-6.2,0.8c-6.8,0-15.4-2.1-23.6-5.6c-14.6-6.4-22-14.7-23.8-18.6C59.2,28.3,61.2,27.9,64.3,27.9z"/></g><g></g><g></g><g></g><g></g><g></g><g></g><g></g><g></g><g></g><g></g><g></g><g></g><g></g><g></g><g></g></g></g>
</svg>