<?xml version="1.0"?>
<svg width="640" height="480" xmlns="http://www.w3.org/2000/svg" xmlns:svg="http://www.w3.org/2000/svg" xmlns:xlink="http://www.w3.org/1999/xlink">
 <!-- Created with SVG-edit - https://github.com/SVG-Edit/svgedit-->
 <defs>
  <symbol id="svg_4" version="1.1" viewBox="0 0 500 500" x="0px" xmlns="http://www.w3.org/2000/svg" xmlns:xlink="http://www.w3.org/1999/xlink" y="0px">
   <g id="svg_1">
    <g>
     <defs>
      <path d="m31.2,162.65c0,0 3.17,-2.53 8.08,6.02c4.92,8.56 9.67,-0.16 12.84,3.17c3.17,3.33 4.91,5.07 4.28,8.72c-0.64,3.64 0.31,11.72 1.42,7.92c1.11,-3.8 -0.47,-15.05 2.85,-16.16c3.33,-1.11 3.81,-0.48 7.45,4.12c3.65,4.59 8.56,-4.28 11.57,-3.33c3.01,0.95 5.39,-2.38 8.4,0.32c3.01,2.69 1.58,21.23 4.12,17.58c2.53,-3.64 1.42,-15.37 3.17,-13.31c1.74,2.06 3.96,6.5 5.38,-1.9c1.43,-8.39 3.81,-4.91 7.45,-1.9c3.64,3.01 6.5,2.54 8.71,-0.79c2.22,-3.33 7.45,2.85 9.35,15.69c1.9,12.83 2.54,2.06 3.49,-3.81c0.95,-5.86 2.85,-10.14 5.86,-6.81c3.01,3.33 1.75,7.77 3.96,9.51c2.22,1.74 1.9,16.32 3.49,13.47c1.58,-2.85 0.47,-17.75 2.69,-19.18c2.22,-1.42 1.27,-7.6 5.71,-6.49c4.43,1.11 5.23,10.93 8.08,8.4c2.85,-2.54 4.12,11.72 7.13,10.61c3.01,-1.11 0.16,34.39 3.96,36.6c3.8,2.22 0.63,-36.76 3.49,-39.61c2.85,-2.85 7.6,-4.75 8.55,-10.93c0.95,-6.18 8.24,-17.27 9.98,-9.51c1.75,7.76 6.66,8.08 6.5,14.74c-0.16,6.65 1.27,12.83 2.38,8.08c1.11,-4.76 -0.64,-13 4.12,-15.85c4.75,-2.85 3.01,-9.98 8.4,-10.61c5.38,-0.64 12.67,-5.23 14.57,-3.97c0,0 -2.69,-4.27 -10.14,-4.27c-7.44,0 -12.67,-7.77 -23.77,-2.86c-11.09,4.92 -36.76,-3.32 -43.57,0.96c-6.81,4.27 -4.91,-5.55 -26.94,-0.48c-22.02,5.07 -21.86,-5.86 -37.71,0.32c-15.84,6.18 -25.83,-2.06 -35.17,2.06c-9.35,4.11 -17.43,-3.65 -20.13,3.48z" id="svg_3"/>
     </defs>
     <use fill="#FEFDFD" overflow="visible" xlink:href="#svg_3"/>
     <clipPath id="svg_2">
      <use overflow="visible" xlink:href="#svg_3"/>
     </clipPath>
     <path clip-path="url(#svg_2)" d="m31.2,159.76c0.6,0 5.23,0.24 9.87,5.58c4.63,5.35 6.77,1.79 9.74,1.55c2.97,-0.24 4.28,7.72 6.06,3.21c1.79,-4.52 4.99,-3.92 7.96,-0.72c2.98,3.21 6.42,3.33 9.51,0.96c3.09,-2.38 10.58,-4.88 14.14,-1.19c3.57,3.68 3.81,5.58 6.06,2.85c2.26,-2.73 7.37,-6.54 11.77,-4.16c4.4,2.38 11.76,-4.52 16.4,-0.71c4.63,3.8 4.04,6.77 7.13,2.85c3.09,-3.92 9.15,2.61 10.69,6.65c1.55,4.04 3.45,-1.66 5.23,-5.46c1.79,-3.81 6.3,-2.97 9.04,1.07c2.73,4.04 6.65,6.41 9.62,4.39c2.97,-2.02 1.78,9.27 6.54,6.07c4.75,-3.21 6.65,-16.52 13.55,-17.71c6.89,-1.19 10.57,-0.6 12.95,3.56c2.38,4.16 4.28,4.04 5.58,-0.12c1.31,-4.15 8.32,-4.39 12.72,-6.53c4.4,-2.14 10.34,-1.31 1.66,-5.23c-8.67,-3.92 19.49,1.78 19.49,1.78l-0.23,11.41l-9.87,10.93l-11.64,23.77l-15.45,19.61c0,0 -10.1,10.7 -23.77,11.88c-13.67,1.19 -44.09,-7.48 -44.09,-7.48l-48.49,-11.65l-47.65,-20.68l-11.53,-29.35l7.01,-7.13z" fill="#D8ECF5"/>
     <path clip-path="url(#svg_2)" d="m31.56,163.56c0,0 1.66,-3.33 5.58,0.71s3.33,8.08 8.56,6.42c5.23,-1.66 7.6,-2.26 9.51,1.78c1.9,4.04 1.78,8.08 2.97,0.12c1.18,-7.96 8.32,0.36 10.93,2.38c2.61,2.02 7.96,-4.04 11.53,-3.8c3.56,0.24 6.53,-2.14 8.55,0.47c2.02,2.62 2.38,14.02 3.33,5.94s6.06,4.4 6.65,-2.14c0.6,-6.53 3.09,-7.6 7.49,-4.99c4.4,2.62 6.66,3.69 9.75,0.48c3.09,-3.21 8.32,-0.59 9.27,4.99c0.95,5.59 2.37,10.34 3.2,1.9c0.84,-8.44 9.16,-4.51 9.63,0.24c0.48,4.75 0.36,6.3 1.55,7.61c1.18,1.3 2.37,15.09 3.2,3.68c0.84,-11.41 1.91,-8.56 2.86,-12.12c0.95,-3.57 4.39,-6.66 6.89,-2.97c2.5,3.68 5.23,8.2 7.01,6.65c1.78,-1.54 3.8,2.38 4.28,4.99c0.47,2.62 1.43,6.78 2.61,5.94c1.19,-0.83 3.09,3.81 3.21,14.62c0.12,10.82 0.24,22.22 1.31,15.33c1.07,-6.89 -1.19,-30.18 1.19,-32.2c2.38,-2.02 6.42,-3.93 6.65,-6.54s4.76,-16.16 9.87,-16.16c5.11,0 4.28,0.59 6.18,5.82c1.9,5.23 4.28,4.04 4.99,6.66c0.71,2.61 -0.12,13.19 0.71,8.43c0.83,-4.75 1.07,-10.33 3.33,-11.76c2.26,-1.43 4.16,-9.75 8.55,-10.22c4.4,-0.48 12.48,-5.7 17.24,-0.71c4.75,4.99 -18.66,46.94 -18.66,46.94l-15.69,25.31l-39.69,4.16l-125.85,-51.22l1.31,-26.74z" fill="#ADD3E7"/>
    </g>
   </g>
  </symbol>
 </defs>
 <g class="layer">
  <title>Layer 1</title>
  <use id="svg_5" transform="matrix(2.79967, 0, 0, 2.79967, -248.209, -360.472)" x="0" xlink:href="#svg_4" y="0"/>
 </g>
</svg>