<?xml version="1.0" encoding="utf-8"?>
<!-- Generator: Adobe Illustrator 27.5.0, SVG Export Plug-In . SVG Version: 6.00 Build 0)  -->
<svg version="1.1" xmlns="http://www.w3.org/2000/svg" xmlns:xlink="http://www.w3.org/1999/xlink" x="0px" y="0px"
	 viewBox="0 0 500 500" style="enable-background:new 0 0 500 500;" xml:space="preserve">
<g id="BACKGROUND">
	
		<radialGradient id="SVGID_1_" cx="-39.2259" cy="265.3971" r="513.7427" gradientTransform="matrix(0.4895 0 0 0.4838 269.2011 121.6009)" gradientUnits="userSpaceOnUse">
		<stop  offset="0.002" style="stop-color:#58D1DF"/>
		<stop  offset="1" style="stop-color:#46A4E1"/>
	</radialGradient>
	<rect style="fill:url(#SVGID_1_);" width="500" height="500"/>
</g>
<g id="OBJECTS">
	<g>
		<defs>
			<path id="XMLID_1_" d="M31.202,162.65c0,0,3.169-2.535,8.081,6.021c4.912,8.556,9.665-0.158,12.835,3.169
				c3.169,3.327,4.912,5.07,4.278,8.715c-0.634,3.644,0.317,11.725,1.426,7.923c1.109-3.803-0.475-15.053,2.852-16.162
				c3.327-1.109,3.803-0.475,7.447,4.12c3.644,4.595,8.556-4.278,11.567-3.327c3.011,0.951,5.387-2.377,8.398,0.317
				c3.011,2.694,1.585,21.233,4.12,17.588c2.535-3.644,1.426-15.37,3.169-13.31c1.743,2.06,3.961,6.497,5.387-1.901
				c1.426-8.398,3.803-4.912,7.447-1.901c3.644,3.011,6.496,2.535,8.715-0.792c2.218-3.327,7.447,2.852,9.349,15.687
				c1.901,12.835,2.535,2.06,3.486-3.803c0.951-5.863,2.852-10.141,5.863-6.813c3.011,3.327,1.743,7.764,3.961,9.507
				c2.218,1.743,1.901,16.321,3.486,13.469c1.585-2.852,0.475-17.747,2.694-19.173c2.218-1.426,1.268-7.606,5.704-6.497
				c4.437,1.109,5.229,10.933,8.081,8.398c2.852-2.535,4.12,11.725,7.13,10.616c3.011-1.109,0.159,34.384,3.961,36.602
				c3.803,2.218,0.634-36.761,3.486-39.613c2.852-2.852,7.606-4.754,8.556-10.933c0.951-6.18,8.24-17.271,9.982-9.507
				c1.743,7.764,6.655,8.081,6.497,14.736c-0.158,6.655,1.268,12.835,2.377,8.081c1.109-4.754-0.634-12.993,4.12-15.845
				c4.753-2.852,3.011-9.982,8.398-10.616c5.387-0.634,12.676-5.229,14.578-3.961c0,0-2.694-4.278-10.141-4.278
				c-7.447,0-12.676-7.764-23.768-2.852c-11.092,4.912-36.761-3.327-43.574,0.951c-6.813,4.278-4.912-5.546-26.937-0.475
				c-22.025,5.07-21.866-5.863-37.712,0.317c-15.845,6.18-25.828-2.06-35.176,2.06C41.977,163.284,33.896,155.52,31.202,162.65z"/>
		</defs>
		<use xlink:href="#XMLID_1_"  style="overflow:visible;fill:#FEFDFD;"/>
		<clipPath id="XMLID_00000048496165867077639440000017754464195398370695_">
			<use xlink:href="#XMLID_1_"  style="overflow:visible;"/>
		</clipPath>
		<path style="clip-path:url(#XMLID_00000048496165867077639440000017754464195398370695_);fill:#D8ECF5;" d="M31.202,159.758
			c0.594,0,5.229,0.238,9.864,5.585c4.635,5.348,6.774,1.783,9.745,1.545c2.971-0.238,4.278,7.725,6.061,3.209
			c1.783-4.516,4.991-3.922,7.962-0.713c2.971,3.209,6.417,3.327,9.507,0.951c3.09-2.377,10.577-4.872,14.142-1.188
			c3.565,3.684,3.803,5.585,6.061,2.852c2.258-2.733,7.368-6.536,11.765-4.159c4.397,2.377,11.765-4.516,16.4-0.713
			c4.635,3.803,4.041,6.774,7.13,2.852c3.09-3.922,9.151,2.615,10.695,6.655c1.545,4.04,3.446-1.664,5.229-5.467
			c1.783-3.803,6.299-2.971,9.032,1.07c2.733,4.041,6.655,6.417,9.626,4.397c2.971-2.02,1.783,9.269,6.536,6.061
			c4.754-3.209,6.655-16.519,13.548-17.707c6.893-1.188,10.577-0.594,12.953,3.565c2.377,4.159,4.278,4.041,5.585-0.119
			c1.307-4.159,8.319-4.397,12.716-6.536c4.397-2.139,10.339-1.307,1.664-5.229c-8.675-3.922,19.49,1.783,19.49,1.783l-0.238,11.409
			l-9.864,10.933l-11.646,23.768l-15.449,19.608c0,0-10.101,10.696-23.768,11.884c-13.667,1.188-44.089-7.487-44.089-7.487
			L83.372,216.92l-47.654-20.678L24.19,166.889L31.202,159.758z"/>
		<path style="clip-path:url(#XMLID_00000048496165867077639440000017754464195398370695_);fill:#ADD3E7;" d="M31.558,163.561
			c0,0,1.664-3.327,5.585,0.713s3.327,8.081,8.556,6.417c5.229-1.664,7.606-2.258,9.507,1.783c1.901,4.04,1.783,8.081,2.971,0.119
			c1.188-7.962,8.319,0.357,10.933,2.377c2.614,2.02,7.962-4.04,11.527-3.803c3.565,0.238,6.536-2.139,8.556,0.475
			c2.02,2.615,2.377,14.023,3.327,5.942s6.061,4.397,6.655-2.139c0.594-6.536,3.09-7.606,7.487-4.991
			c4.397,2.614,6.655,3.684,9.745,0.475c3.09-3.209,8.319-0.594,9.269,4.991c0.951,5.585,2.377,10.339,3.209,1.901
			c0.832-8.438,9.151-4.516,9.626,0.238c0.475,4.753,0.357,6.298,1.545,7.606c1.188,1.307,2.377,15.092,3.209,3.684
			c0.832-11.409,1.901-8.556,2.852-12.122c0.951-3.565,4.397-6.655,6.893-2.971c2.496,3.684,5.229,8.2,7.012,6.655
			c1.783-1.545,3.803,2.377,4.278,4.991c0.475,2.614,1.426,6.774,2.615,5.942c1.188-0.832,3.09,3.803,3.209,14.617
			c0.119,10.814,0.238,22.223,1.307,15.33c1.069-6.893-1.188-30.185,1.188-32.205c2.377-2.02,6.417-3.922,6.655-6.536
			s4.754-16.162,9.864-16.162c5.11,0,4.278,0.594,6.18,5.823c1.901,5.229,4.278,4.04,4.991,6.655
			c0.713,2.614-0.119,13.191,0.713,8.438c0.832-4.754,1.07-10.339,3.327-11.765c2.258-1.426,4.159-9.745,8.556-10.22
			c4.397-0.475,12.478-5.704,17.232-0.713c4.754,4.991-18.658,46.942-18.658,46.942l-15.687,25.313l-39.692,4.159L30.251,190.3
			L31.558,163.561z"/>
	</g>
	<g>
		<defs>
			<path id="XMLID_5_" d="M301.86,307.907c0,0-2.614-7.606,1.901-15.687c4.516-8.081,12.597-14.736,19.014-13.072
				c6.417,1.664,10.933,10.933,13.548,9.269c2.614-1.664-2.139-4.278,8.319-0.951c10.458,3.328,11.171-4.278,27.808,0.475
				c16.637,4.754,25.907-3.803,33.75-3.09c7.843,0.713,8.556-3.09,15.449,0.238c6.893,3.328,22.104,0.475,30.423-2.139
				c8.319-2.614,15.687,6.655,9.032,9.983c-6.655,3.327-7.843,4.516-17.826-0.951c-9.983-5.467-10.695,4.278-16.4,4.991
				c-5.704,0.713-3.803,20.678-5.942,16.162s1.426-18.777-3.09-18.301c-4.516,0.475-12.597,2.614-15.687,1.664
				c-3.09-0.951,0.713,19.965-2.377,19.49c-3.09-0.475-0.951-20.678-3.327-19.252c-2.377,1.426-4.278,4.516-10.695,2.377
				c-6.417-2.139-3.328,2.377-11.884,1.901c-8.556-0.475-10.695,6.655-14.974,7.843c-4.278,1.188-3.328,23.53-5.467,13.548
				c-2.139-9.982-1.188-12.597-5.942-12.597c-4.754,0-8.081-4.991-9.982-2.377c-1.901,2.615-5.704,7.843-8.556,5.942
				c-2.852-1.902-0.475,19.014-2.377,18.301c-1.902-0.713-1.664-17.826-4.278-16.4c-2.614,1.426-2.852,7.843-5.229,7.843
				c-2.377,0,0.713,8.556-2.377,11.884c-3.09,3.327-4.278,9.507-4.991,13.548c-0.713,4.041-0.713-21.153-2.377-24.243
				C305.663,321.217,302.098,318.365,301.86,307.907z"/>
		</defs>
		<use xlink:href="#XMLID_5_"  style="overflow:visible;fill:#FEFDFD;"/>
		<clipPath id="XMLID_00000100376523549712221080000015518959491667622785_">
			<use xlink:href="#XMLID_5_"  style="overflow:visible;"/>
		</clipPath>
		<path style="clip-path:url(#XMLID_00000100376523549712221080000015518959491667622785_);fill:#D8ECF5;" d="M298.137,302.441
			c0,0,3.961,14.736,15.528,7.289c11.567-7.447,6.655-17.588,9.824-15.687c3.169,1.901-4.12,11.884-0.158,10.933
			s6.18-9.349,9.666-6.021c3.486,3.328,14.102,7.606,18.064,2.535c3.961-5.07,11.884-9.507,16.638-7.13s15.053-5.07,21.074-3.011
			c6.021,2.06,16.954,2.535,21.708-0.158c4.754-2.694,5.863-0.634,11.408-1.426c5.546-0.792,14.419-7.289,22.659-2.852
			c8.24,4.437,25.828-1.426,17.43-5.704c-8.398-4.278,13.785-1.109,13.785-1.109l1.585,19.965l-38.662,23.451l-36.603,18.539
			l-44.525,1.901c0,0-12.518-0.317-31.057,2.06c-18.539,2.377-30.423,14.895-30.423,14.895L298.137,302.441z"/>
		<path style="clip-path:url(#XMLID_00000100376523549712221080000015518959491667622785_);fill:#ADD3E7;" d="M300.038,305.927
			c0,0,1.585,9.982,5.863,11.725c4.278,1.743,1.743,18.38,4.437,16.479s2.06-12.359,6.18-13.944
			c4.12-1.585,6.338-12.676,7.606-5.229c1.268,7.447,2.218,2.535,2.852-3.644c0.634-6.18,0.792,3.961,5.546-1.109
			c4.754-5.071,3.961-8.398,8.873-5.071c4.912,3.328,7.923,0,9.982,2.852c2.06,2.852,2.377,10.458,3.169,4.912
			c0.792-5.546,0.634-2.852,4.912-7.289c4.278-4.437,6.021-5.387,14.578-6.972s3.961-4.437,12.359-3.803
			c8.398,0.634,9.982,0,12.201,0.634c2.218,0.634,9.666-2.06,15.687-2.218c6.021-0.158,7.289,3.486,9.349,1.901
			c2.06-1.585,10.458-9.824,16.954-6.814c6.496,3.011,29.947,1.109,30.74-1.268c0.792-2.377-6.021,23.451-6.021,23.451
			l-41.99,22.183l-55.3,6.972l-50.705,16.796l-30.106-1.585l4.437-56.251C291.64,298.638,300.83,305.927,300.038,305.927z"/>
	</g>
</g>
<g id="DESIGNED_BY_FREEPIK">
	<g>
		<path style="fill:#FEFDFD;" d="M414.42,225.596c0.768,0.855,2.084,0.925,2.939,0.156c0.855-0.768,0.925-2.084,0.156-2.939
			c-0.769-0.855-2.084-0.925-2.939-0.156C413.722,223.425,413.652,224.741,414.42,225.596z"/>
		<path style="fill:#FEFDFD;" d="M355.725,220.48c-0.027,0.516,0.369,0.958,0.885,0.985c0.517,0.027,0.958-0.369,0.985-0.885
			c0.027-0.517-0.369-0.958-0.885-0.985C356.193,219.568,355.752,219.964,355.725,220.48z"/>
		<path style="fill:#FEFDFD;" d="M342.444,223.318c-0.027,0.516,0.369,0.957,0.885,0.985c0.517,0.027,0.957-0.369,0.985-0.886
			c0.027-0.516-0.369-0.958-0.885-0.985C342.912,222.404,342.471,222.801,342.444,223.318z"/>
		<path style="fill:#FEFDFD;" d="M359.836,233.308c-0.018,0.344,0.246,0.638,0.59,0.657c0.344,0.018,0.638-0.246,0.657-0.59
			c0.018-0.344-0.246-0.638-0.59-0.657C360.149,232.7,359.855,232.964,359.836,233.308z"/>
		<path style="fill:#FEFDFD;" d="M322.494,218.297c0.021-0.402,0.364-0.71,0.766-0.689c0.402,0.021,0.71,0.364,0.689,0.766
			c-0.021,0.402-0.364,0.71-0.766,0.689C322.781,219.042,322.473,218.699,322.494,218.297z"/>
		<path style="fill:#FEFDFD;" d="M302.971,213.091c-0.021,0.402,0.287,0.745,0.689,0.766c0.402,0.021,0.745-0.287,0.766-0.689
			c0.021-0.402-0.287-0.745-0.689-0.766C303.335,212.38,302.993,212.689,302.971,213.091z"/>
		<path style="fill:#FEFDFD;" d="M323.135,237.61c-0.018,0.344,0.246,0.638,0.59,0.657c0.344,0.018,0.638-0.246,0.657-0.59
			c0.018-0.344-0.246-0.638-0.59-0.657C323.447,237.001,323.153,237.265,323.135,237.61z"/>
		<path style="fill:#FEFDFD;" d="M383.883,227.917c0,0,0.372,0.02,0.831,0.044c0.459,0.024,0.831,0.044,0.831,0.044
			s-0.372-0.02-0.831-0.044C384.255,227.937,383.883,227.917,383.883,227.917z"/>
		<path style="fill:#FEFDFD;" d="M403.214,213.21c-0.046,0.861,0.615,1.596,1.476,1.642c0.861,0.046,1.596-0.615,1.642-1.476
			c0.046-0.861-0.615-1.596-1.476-1.642C403.995,211.688,403.26,212.349,403.214,213.21z"/>
		<path style="fill:#FEFDFD;" d="M391.254,230.394c-0.018,0.344,0.246,0.638,0.59,0.657c0.344,0.018,0.638-0.246,0.657-0.59
			c0.018-0.344-0.246-0.638-0.59-0.657C391.566,229.785,391.272,230.049,391.254,230.394z"/>
		<path style="fill:#FEFDFD;" d="M391.119,248.623c-0.027,0.517,0.369,0.958,0.885,0.985c0.517,0.028,0.958-0.369,0.985-0.885
			c0.027-0.516-0.369-0.958-0.885-0.985C391.587,247.71,391.146,248.106,391.119,248.623z"/>
		<path style="fill:#FEFDFD;" d="M392.66,219.631c0,0,0.698,0.037,1.559,0.083c0.861,0.046,1.559,0.083,1.559,0.083
			s-0.698-0.037-1.559-0.083C393.358,219.668,392.66,219.631,392.66,219.631z"/>
		<path style="fill:#FEFDFD;" d="M408.355,234.116c-0.021,0.402,0.287,0.745,0.689,0.766c0.402,0.021,0.745-0.287,0.766-0.689
			c0.021-0.402-0.287-0.745-0.689-0.766C408.719,233.406,408.376,233.715,408.355,234.116z"/>
		<path style="fill:#FEFDFD;" d="M384.485,236.182c-0.015,0.287-0.028,0.52-0.028,0.52S384.47,236.469,384.485,236.182
			c0.015-0.287,0.028-0.52,0.028-0.52S384.501,235.895,384.485,236.182z"/>
		<path style="fill:#FEFDFD;" d="M395.888,217.718c-0.024,0.459,0.328,0.851,0.787,0.876c0.459,0.024,0.851-0.328,0.875-0.787
			c0.024-0.459-0.328-0.851-0.787-0.876C396.304,216.906,395.912,217.259,395.888,217.718z"/>
		<path style="fill:#FEFDFD;" d="M398.043,228.149c-0.015,0.287,0.205,0.532,0.492,0.547c0.287,0.015,0.532-0.205,0.547-0.492
			c0.015-0.287-0.205-0.532-0.492-0.547C398.303,227.642,398.058,227.862,398.043,228.149z"/>
		<path style="fill:#FEFDFD;" d="M340.098,232.155c-0.021,0.402,0.287,0.745,0.689,0.766c0.402,0.021,0.745-0.287,0.766-0.689
			c0.021-0.402-0.287-0.745-0.689-0.766C340.462,231.445,340.119,231.753,340.098,232.155z"/>
		<path style="fill:#FEFDFD;" d="M360.641,241.688c0,0,0.465,0.025,1.039,0.055c0.574,0.031,1.039,0.055,1.039,0.055
			s-0.465-0.025-1.039-0.055C361.107,241.713,360.641,241.688,360.641,241.688z"/>
		<path style="fill:#FEFDFD;" d="M323.258,211.772c0,0,0.093,0.005,0.208,0.011c0.115,0.006,0.208,0.011,0.208,0.011
			s-0.093-0.005-0.208-0.011C323.351,211.777,323.258,211.772,323.258,211.772z"/>
		<path style="fill:#FEFDFD;" d="M367.581,232.678c-0.03,0.574,0.41,1.064,0.984,1.094c0.574,0.03,1.064-0.41,1.094-0.984
			c0.03-0.574-0.41-1.064-0.984-1.094C368.102,231.664,367.612,232.104,367.581,232.678z"/>
		<path style="fill:#FEFDFD;" d="M353.189,185.852c-0.024,0.459,0.328,0.851,0.787,0.876s0.851-0.328,0.875-0.787
			c0.024-0.459-0.328-0.851-0.787-0.876C353.606,185.041,353.214,185.393,353.189,185.852z"/>
		<path style="fill:#FEFDFD;" d="M376.762,185.439c-0.031,0.574,0.41,1.064,0.984,1.094c0.574,0.031,1.064-0.41,1.094-0.984
			c0.03-0.574-0.41-1.064-0.984-1.094C377.283,184.424,376.793,184.865,376.762,185.439z"/>
		<path style="fill:#FEFDFD;" d="M325.925,185.132c-0.021,0.402,0.287,0.745,0.689,0.766c0.402,0.021,0.745-0.287,0.766-0.689
			c0.021-0.402-0.287-0.745-0.689-0.766C326.289,184.422,325.946,184.731,325.925,185.132z"/>
		<path style="fill:#FEFDFD;" d="M342.289,194.86c-0.037,0.689,0.492,1.277,1.181,1.313c0.689,0.037,1.277-0.492,1.313-1.181
			c0.037-0.689-0.492-1.277-1.181-1.313C342.914,193.643,342.326,194.171,342.289,194.86z"/>
		<path style="fill:#FEFDFD;" d="M408.206,174.188c-0.012,0.23,0.164,0.426,0.394,0.438c0.229,0.012,0.425-0.164,0.438-0.394
			s-0.164-0.426-0.393-0.438C408.415,173.783,408.219,173.959,408.206,174.188z"/>
		<path style="fill:#FEFDFD;" d="M417.44,192.603c0,0,0.186,0.01,0.416,0.022c0.23,0.012,0.416,0.022,0.416,0.022
			s-0.186-0.01-0.416-0.022C417.626,192.613,417.44,192.603,417.44,192.603z"/>
		<circle style="fill:#FEFDFD;" cx="255.211" cy="90.224" r="0.951"/>
		<path style="fill:#FEFDFD;" d="M297.835,91.491c0,0.35-0.284,0.634-0.634,0.634c-0.35,0-0.634-0.284-0.634-0.634
			s0.284-0.634,0.634-0.634C297.551,90.858,297.835,91.141,297.835,91.491z"/>
		<path style="fill:#FEFDFD;" d="M295.933,97.671c0,0.088-0.071,0.159-0.158,0.159s-0.159-0.071-0.159-0.159
			c0-0.087,0.071-0.158,0.159-0.158S295.933,97.584,295.933,97.671z"/>
		<path style="fill:#FEFDFD;" d="M288.961,108.921c0,0.175-0.142,0.317-0.317,0.317c-0.175,0-0.317-0.142-0.317-0.317
			c0-0.175,0.142-0.317,0.317-0.317C288.819,108.604,288.961,108.746,288.961,108.921z"/>
		<path style="fill:#FEFDFD;" d="M264.56,98.226c0-0.306-0.248-0.555-0.555-0.555c-0.306,0-0.555,0.248-0.555,0.555
			c0,0.306,0.248,0.555,0.555,0.555C264.311,98.78,264.56,98.532,264.56,98.226z"/>
		<path style="fill:#FEFDFD;" d="M273.433,94.264c0,0.219-0.177,0.396-0.396,0.396c-0.219,0-0.396-0.177-0.396-0.396
			c0-0.219,0.177-0.396,0.396-0.396C273.256,93.868,273.433,94.046,273.433,94.264z"/>
		<path style="fill:#FEFDFD;" d="M272.007,110.347c0,0.438-0.355,0.792-0.792,0.792s-0.792-0.355-0.792-0.792
			c0-0.438,0.355-0.792,0.792-0.792S272.007,109.91,272.007,110.347z"/>
		<path style="fill:#FEFDFD;" d="M297.359,105.356c0,0.219-0.177,0.396-0.396,0.396c-0.219,0-0.396-0.177-0.396-0.396
			c0-0.219,0.177-0.396,0.396-0.396C297.182,104.96,297.359,105.137,297.359,105.356z"/>
		<circle style="fill:#FEFDFD;" cx="319.542" cy="101.474" r="0.317"/>
		<path style="fill:#FEFDFD;" d="M336.021,109.634c0,0.306-0.248,0.555-0.554,0.555c-0.306,0-0.555-0.248-0.555-0.555
			s0.248-0.555,0.555-0.555C335.773,109.08,336.021,109.328,336.021,109.634z"/>
		<path style="fill:#FEFDFD;" d="M316.373,115.418c0,0-0.142,0-0.317,0c-0.175,0-0.317,0-0.317,0s0.142,0,0.317,0
			C316.232,115.418,316.373,115.418,316.373,115.418z"/>
		<circle style="fill:#FEFDFD;" cx="334.992" cy="99.018" r="0.713"/>
		<circle style="fill:#FEFDFD;" cx="311.065" cy="97.75" r="0.555"/>
		<path style="fill:#FEFDFD;" d="M297.359,85.866c0,0.306-0.248,0.554-0.555,0.554s-0.555-0.248-0.555-0.554
			c0-0.306,0.248-0.555,0.555-0.555S297.359,85.56,297.359,85.866z"/>
		<path style="fill:#FEFDFD;" d="M310.035,100.761c0,0.219-0.177,0.396-0.396,0.396c-0.219,0-0.396-0.177-0.396-0.396
			c0-0.219,0.177-0.396,0.396-0.396C309.858,100.365,310.035,100.542,310.035,100.761z"/>
		<path style="fill:#FEFDFD;" d="M316.215,111.773c0,0-0.213,0-0.475,0c-0.263,0-0.475,0-0.475,0s0.213,0,0.475,0
			C316.002,111.773,316.215,111.773,316.215,111.773z"/>
		<circle style="fill:#FEFDFD;" cx="347.113" cy="100.206" r="0.317"/>
		<path style="fill:#FEFDFD;" d="M366.444,104.484c0,0.263-0.213,0.475-0.475,0.475c-0.263,0-0.475-0.213-0.475-0.475
			c0-0.262,0.213-0.475,0.475-0.475C366.231,104.009,366.444,104.222,366.444,104.484z"/>
		<path style="fill:#FEFDFD;" d="M357.413,112.645c0,0.219-0.177,0.396-0.396,0.396c-0.219,0-0.396-0.177-0.396-0.396
			c0-0.219,0.177-0.396,0.396-0.396C357.235,112.249,357.413,112.426,357.413,112.645z"/>
		<path style="fill:#FEFDFD;" d="M348.064,111.06c0,0.481-0.39,0.871-0.871,0.871s-0.871-0.39-0.871-0.871
			c0-0.481,0.39-0.872,0.871-0.872S348.064,110.579,348.064,111.06z"/>
		<path style="fill:#FEFDFD;" d="M361.215,94.74c0,0.131-0.106,0.238-0.238,0.238c-0.131,0-0.238-0.106-0.238-0.238
			c0-0.131,0.106-0.238,0.238-0.238C361.109,94.502,361.215,94.608,361.215,94.74z"/>
		<circle style="fill:#FEFDFD;" cx="365.573" cy="113.12" r="0.872"/>
		<path style="fill:#FEFDFD;" d="M336.099,151.221c0,0-0.319,0-0.713,0s-0.713,0-0.713,0s0.319,0,0.713,0
			S336.099,151.221,336.099,151.221z"/>
		<path style="fill:#FEFDFD;" d="M394.807,103.851c0-0.263-0.213-0.475-0.475-0.475c-0.263,0-0.475,0.213-0.475,0.475
			c0,0.262,0.213,0.475,0.475,0.475C394.594,104.326,394.807,104.113,394.807,103.851z"/>
		<path style="fill:#FEFDFD;" d="M392.114,92.521c0,0.306-0.248,0.555-0.555,0.555c-0.306,0-0.555-0.248-0.555-0.555
			c0-0.306,0.248-0.555,0.555-0.555C391.865,91.967,392.114,92.215,392.114,92.521z"/>
		<path style="fill:#FEFDFD;" d="M385.3,109.793c0,0.131-0.106,0.238-0.238,0.238c-0.131,0-0.238-0.106-0.238-0.238
			c0-0.131,0.106-0.238,0.238-0.238C385.194,109.555,385.3,109.661,385.3,109.793z"/>
		<path style="fill:#FEFDFD;" d="M381.022,116.131c0,0.306-0.248,0.555-0.555,0.555s-0.555-0.248-0.555-0.555
			s0.248-0.555,0.555-0.555S381.022,115.824,381.022,116.131z"/>
		<path style="fill:#FEFDFD;" d="M399.402,118.428c0,0-0.106,0-0.238,0c-0.131,0-0.238,0-0.238,0s0.106,0,0.238,0
			C399.296,118.428,399.402,118.428,399.402,118.428z"/>
		<circle style="fill:#FEFDFD;" cx="409.147" cy="102.345" r="0.872"/>
		<path style="fill:#FEFDFD;" d="M406.691,111.773c0-0.088-0.071-0.159-0.158-0.159c-0.087,0-0.158,0.071-0.158,0.159
			s0.071,0.158,0.158,0.158C406.62,111.932,406.691,111.861,406.691,111.773z"/>
		<circle style="fill:#FEFDFD;" cx="390.212" cy="112.724" r="0.792"/>
		<path style="fill:#FEFDFD;" d="M403.681,100.285c0,0.131,0,0.238,0,0.238S403.681,100.417,403.681,100.285s0-0.238,0-0.238
			S403.681,100.154,403.681,100.285z"/>
		<path style="fill:#FEFDFD;" d="M389.895,99.414c0,0.438-0.355,0.792-0.792,0.792c-0.438,0-0.792-0.355-0.792-0.792
			c0-0.438,0.355-0.792,0.792-0.792C389.541,98.622,389.895,98.977,389.895,99.414z"/>
		<path style="fill:#FEFDFD;" d="M443.927,90.462c0,0.306-0.248,0.554-0.555,0.554s-0.555-0.248-0.555-0.554
			c0-0.306,0.248-0.555,0.555-0.555S443.927,90.155,443.927,90.462z"/>
		<path style="fill:#FEFDFD;" d="M423.012,115.339c0,0.569-0.461,1.03-1.03,1.03c-0.569,0-1.03-0.461-1.03-1.03
			c0-0.569,0.461-1.03,1.03-1.03C422.551,114.309,423.012,114.77,423.012,115.339z"/>
		<path style="fill:#FEFDFD;" d="M220.827,88.006c0,0-0.177,0-0.396,0c-0.219,0-0.396,0-0.396,0s0.177,0,0.396,0
			C220.649,88.006,220.827,88.006,220.827,88.006z"/>
		<path style="fill:#FEFDFD;" d="M235.88,99.493c0,0.219-0.177,0.396-0.396,0.396c-0.219,0-0.396-0.177-0.396-0.396
			c0-0.219,0.177-0.396,0.396-0.396C235.702,99.097,235.88,99.274,235.88,99.493z"/>
		<path style="fill:#FEFDFD;" d="M244.911,85.787c0,0.263-0.213,0.475-0.475,0.475c-0.263,0-0.475-0.213-0.475-0.475
			c0-0.263,0.213-0.475,0.475-0.475C244.699,85.312,244.911,85.525,244.911,85.787z"/>
		<circle style="fill:#FEFDFD;" cx="252.993" cy="65.347" r="0.317"/>
		<path style="fill:#FEFDFD;" d="M267.095,58.613c0-0.306-0.248-0.555-0.555-0.555c-0.306,0-0.555,0.248-0.555,0.555
			c0,0.306,0.248,0.555,0.555,0.555C266.846,59.167,267.095,58.919,267.095,58.613z"/>
		<path style="fill:#FEFDFD;" d="M282.148,54.255c0,0.438-0.355,0.792-0.792,0.792c-0.438,0-0.792-0.355-0.792-0.792
			c0-0.438,0.355-0.792,0.792-0.792C281.793,53.463,282.148,53.818,282.148,54.255z"/>
		<path style="fill:#FEFDFD;" d="M323.187,52.75c0,0.131-0.106,0.238-0.238,0.238c-0.131,0-0.238-0.106-0.238-0.238
			c0-0.131,0.106-0.238,0.238-0.238C323.08,52.512,323.187,52.619,323.187,52.75z"/>
		<circle style="fill:#FEFDFD;" cx="323.425" cy="68.437" r="0.872"/>
		<path style="fill:#FEFDFD;" d="M340.141,51.72c0,0-0.248,0-0.555,0s-0.555,0-0.555,0s0.248,0,0.555,0S340.141,51.72,340.141,51.72
			z"/>
		<path style="fill:#FEFDFD;" d="M307.025,50.056c0,0.481-0.39,0.871-0.871,0.871s-0.871-0.39-0.871-0.871
			c0-0.481,0.39-0.871,0.871-0.871S307.025,49.575,307.025,50.056z"/>
		<path style="fill:#FEFDFD;" d="M326.514,61.702c0,0-0.284,0-0.634,0c-0.35,0-0.634,0-0.634,0s0.284,0,0.634,0
			C326.231,61.702,326.514,61.702,326.514,61.702z"/>
		<path style="fill:#FEFDFD;" d="M346.004,47.046c0,0.306-0.248,0.555-0.555,0.555c-0.306,0-0.555-0.248-0.555-0.555
			c0-0.306,0.248-0.555,0.555-0.555C345.756,46.491,346.004,46.739,346.004,47.046z"/>
		<path style="fill:#FEFDFD;" d="M372.624,64.951c0,0.219-0.177,0.396-0.396,0.396c-0.219,0-0.396-0.177-0.396-0.396
			c0-0.219,0.177-0.396,0.396-0.396C372.447,64.554,372.624,64.732,372.624,64.951z"/>
		<path style="fill:#FEFDFD;" d="M372.624,78.023c0,0.35-0.284,0.634-0.634,0.634c-0.35,0-0.634-0.284-0.634-0.634
			c0-0.35,0.284-0.634,0.634-0.634C372.34,77.389,372.624,77.673,372.624,78.023z"/>
		<path style="fill:#FEFDFD;" d="M393.698,59.484c0,0-0.142,0-0.317,0c-0.175,0-0.317,0-0.317,0s0.142,0,0.317,0
			C393.556,59.484,393.698,59.484,393.698,59.484z"/>
		<path style="fill:#FEFDFD;" d="M367.712,70.655c0,0.219-0.177,0.396-0.396,0.396c-0.219,0-0.396-0.177-0.396-0.396
			c0-0.219,0.177-0.396,0.396-0.396C367.535,70.259,367.712,70.436,367.712,70.655z"/>
		<path style="fill:#FEFDFD;" d="M359.472,59.88c0,0.219-0.177,0.396-0.396,0.396c-0.219,0-0.396-0.177-0.396-0.396
			s0.177-0.396,0.396-0.396C359.295,59.484,359.472,59.661,359.472,59.88z"/>
		<path style="fill:#FEFDFD;" d="M337.923,55.444c0,0.219-0.177,0.396-0.396,0.396c-0.219,0-0.396-0.177-0.396-0.396
			c0-0.219,0.177-0.396,0.396-0.396C337.746,55.047,337.923,55.225,337.923,55.444z"/>
		<circle style="fill:#FEFDFD;" cx="333.645" cy="63.445" r="0.317"/>
		<circle style="fill:#FEFDFD;" cx="383.557" cy="48.392" r="0.792"/>
		<path style="fill:#FEFDFD;" d="M413.188,61.702c0,0.263-0.213,0.475-0.475,0.475c-0.262,0-0.475-0.213-0.475-0.475
			s0.213-0.475,0.475-0.475C412.975,61.227,413.188,61.44,413.188,61.702z"/>
		<path style="fill:#FEFDFD;" d="M392.589,67.248c0,0-0.142,0-0.317,0c-0.175,0-0.317,0-0.317,0s0.142,0,0.317,0
			C392.447,67.248,392.589,67.248,392.589,67.248z"/>
		<path style="fill:#FEFDFD;" d="M431.568,54.334c0,0.306-0.248,0.555-0.555,0.555s-0.555-0.248-0.555-0.555
			s0.248-0.555,0.555-0.555S431.568,54.028,431.568,54.334z"/>
		<path style="fill:#FEFDFD;" d="M448.523,61.069c0,0.088,0,0.158,0,0.158S448.523,61.156,448.523,61.069s0-0.159,0-0.159
			S448.523,60.981,448.523,61.069z"/>
		<path style="fill:#FEFDFD;" d="M288.518,161.408c0,0.7-0.568,1.268-1.268,1.268c-0.7,0-1.268-0.567-1.268-1.268
			s0.568-1.268,1.268-1.268C287.95,160.14,288.518,160.707,288.518,161.408z"/>
		<circle style="fill:#FEFDFD;" cx="305.314" cy="160.615" r="0.317"/>
		<path style="fill:#FEFDFD;" d="M289.944,137.561c0,0.219-0.177,0.396-0.396,0.396c-0.219,0-0.396-0.177-0.396-0.396
			c0-0.219,0.177-0.396,0.396-0.396C289.766,137.164,289.944,137.342,289.944,137.561z"/>
		<path style="fill:#FEFDFD;" d="M300.877,163.15c0,0-0.142,0-0.317,0c-0.175,0-0.317,0-0.317,0s0.142,0,0.317,0
			C300.735,163.15,300.877,163.15,300.877,163.15z"/>
		<path style="fill:#FEFDFD;" d="M318.465,152.376c0,0-0.248,0-0.555,0c-0.306,0-0.555,0-0.555,0s0.248,0,0.555,0
			C318.217,152.376,318.465,152.376,318.465,152.376z"/>
		<path style="fill:#FEFDFD;" d="M319.257,164.101c0-0.262-0.213-0.475-0.475-0.475c-0.263,0-0.475,0.213-0.475,0.475
			s0.213,0.475,0.475,0.475C319.045,164.577,319.257,164.364,319.257,164.101z"/>
		<path style="fill:#FEFDFD;" d="M305.155,127.895c0,0.394-0.319,0.713-0.713,0.713s-0.713-0.319-0.713-0.713
			s0.319-0.713,0.713-0.713S305.155,127.501,305.155,127.895z"/>
		<path style="fill:#FEFDFD;" d="M323.694,124.805c0,0.438-0.355,0.792-0.792,0.792c-0.438,0-0.792-0.355-0.792-0.792
			c0-0.438,0.355-0.792,0.792-0.792C323.339,124.013,323.694,124.368,323.694,124.805z"/>
		<circle style="fill:#FEFDFD;" cx="331.696" cy="132.49" r="0.238"/>
		<path style="fill:#FEFDFD;" d="M315.93,122.824c0,0.569-0.461,1.03-1.03,1.03c-0.569,0-1.03-0.461-1.03-1.03s0.461-1.03,1.03-1.03
			C315.469,121.795,315.93,122.256,315.93,122.824z"/>
		<circle style="fill:#FEFDFD;" cx="339.539" cy="132.886" r="0.317"/>
		<path style="fill:#FEFDFD;" d="M320.525,155.307c0,0.131-0.106,0.238-0.238,0.238c-0.131,0-0.238-0.106-0.238-0.238
			s0.106-0.238,0.238-0.238C320.419,155.069,320.525,155.176,320.525,155.307z"/>
		<path style="fill:#FEFDFD;" d="M313.87,158.08c0,0.35-0.284,0.634-0.634,0.634c-0.35,0-0.634-0.284-0.634-0.634
			c0-0.35,0.284-0.634,0.634-0.634C313.586,157.446,313.87,157.73,313.87,158.08z"/>
		<path style="fill:#FEFDFD;" d="M317.91,152.376c0,0-0.124,0-0.277,0c-0.153,0-0.277,0-0.277,0s0.124,0,0.277,0
			C317.786,152.376,317.91,152.376,317.91,152.376z"/>
		<path style="fill:#FEFDFD;" d="M331.458,170.043c0,0.219-0.177,0.396-0.396,0.396c-0.219,0-0.396-0.177-0.396-0.396
			c0-0.219,0.177-0.396,0.396-0.396C331.281,169.647,331.458,169.824,331.458,170.043z"/>
		<path style="fill:#FEFDFD;" d="M345.56,160.615c0,0.263-0.213,0.475-0.475,0.475c-0.262,0-0.475-0.213-0.475-0.475
			c0-0.263,0.213-0.475,0.475-0.475C345.348,160.14,345.56,160.353,345.56,160.615z"/>
		<path style="fill:#FEFDFD;" d="M76.004,49.383c0,0-0.284,0-0.634,0c-0.35,0-0.634,0-0.634,0s0.284,0,0.634,0
			C75.72,49.383,76.004,49.383,76.004,49.383z"/>
		<path style="fill:#FEFDFD;" d="M78.579,180.635c0,0.219-0.177,0.396-0.396,0.396c-0.219,0-0.396-0.177-0.396-0.396
			s0.177-0.396,0.396-0.396C78.402,180.238,78.579,180.416,78.579,180.635z"/>
		<path style="fill:#FEFDFD;" d="M106.625,181.348c0,0-0.177,0-0.396,0c-0.219,0-0.396,0-0.396,0s0.177,0,0.396,0
			C106.448,181.348,106.625,181.348,106.625,181.348z"/>
		<circle style="fill:#FEFDFD;" cx="86.502" cy="177.228" r="0.317"/>
		<path style="fill:#FEFDFD;" d="M84.885,143.331c0,0.219-0.177,0.396-0.396,0.396c-0.219,0-0.396-0.177-0.396-0.396
			c0-0.219,0.177-0.396,0.396-0.396C84.708,142.935,84.885,143.113,84.885,143.331z"/>
		<path style="fill:#FEFDFD;" d="M64.318,181.665c0,0-0.319,0-0.713,0c-0.394,0-0.713,0-0.713,0s0.319,0,0.713,0
			C63.999,181.665,64.318,181.665,64.318,181.665z"/>
		<path style="fill:#FEFDFD;" d="M49.107,180.159c0,0.306-0.248,0.555-0.555,0.555s-0.555-0.248-0.555-0.555
			c0-0.306,0.248-0.554,0.555-0.554S49.107,179.853,49.107,180.159z"/>
		<path style="fill:#FEFDFD;" d="M63.526,175.564c0,0.131-0.106,0.238-0.238,0.238c-0.131,0-0.238-0.106-0.238-0.238
			c0-0.131,0.106-0.238,0.238-0.238C63.42,175.327,63.526,175.433,63.526,175.564z"/>
		<path style="fill:#FEFDFD;" d="M51.959,175.564c0,0.394-0.319,0.713-0.713,0.713c-0.394,0-0.713-0.319-0.713-0.713
			s0.319-0.713,0.713-0.713C51.64,174.851,51.959,175.17,51.959,175.564z"/>
		<path style="fill:#FEFDFD;" d="M117.558,192.122c0,0.087,0,0.158,0,0.158S117.558,192.21,117.558,192.122c0-0.088,0-0.159,0-0.159
			S117.558,192.035,117.558,192.122z"/>
		<circle style="fill:#FEFDFD;" cx="116.528" cy="179.05" r="0.396"/>
		<circle style="fill:#FEFDFD;" cx="107.338" cy="188.24" r="0.238"/>
		<path style="fill:#FEFDFD;" d="M103.931,176.911c0,0-0.213,0-0.475,0s-0.475,0-0.475,0s0.213,0,0.475,0
			S103.931,176.911,103.931,176.911z"/>
		<circle style="fill:#FEFDFD;" cx="122.55" cy="190.617" r="0.713"/>
		<path style="fill:#FEFDFD;" d="M163.034,189.191c0,0.219-0.177,0.396-0.396,0.396c-0.219,0-0.396-0.177-0.396-0.396
			c0-0.219,0.177-0.396,0.396-0.396C162.857,188.795,163.034,188.972,163.034,189.191z"/>
		<circle style="fill:#FEFDFD;" cx="157.456" cy="195.066" r="0.634"/>
		<circle style="fill:#FEFDFD;" cx="112.329" cy="180.714" r="0.634"/>
		<path style="fill:#FEFDFD;" d="M101.079,181.506c0,0-0.177,0-0.396,0s-0.396,0-0.396,0s0.177,0,0.396,0
			S101.079,181.506,101.079,181.506z"/>
		<circle style="fill:#FEFDFD;" cx="98.623" cy="192.36" r="1.188"/>
		<path style="fill:#FEFDFD;" d="M83.65,192.439c0,0-0.213,0-0.475,0c-0.262,0-0.475,0-0.475,0s0.213,0,0.475,0
			C83.437,192.439,83.65,192.439,83.65,192.439z"/>
		<path style="fill:#FEFDFD;" d="M103.931,194.42c0,0.131-0.106,0.238-0.238,0.238c-0.131,0-0.238-0.106-0.238-0.238
			c0-0.131,0.106-0.238,0.238-0.238C103.825,194.182,103.931,194.289,103.931,194.42z"/>
		<path style="fill:#FEFDFD;" d="M139.224,122.231c0,0-0.177,0-0.396,0s-0.396,0-0.396,0s0.177,0,0.396,0
			S139.224,122.231,139.224,122.231z"/>
		<path style="fill:#FEFDFD;" d="M150.96,137.706c0,0.613-0.497,1.109-1.109,1.109c-0.613,0-1.109-0.497-1.109-1.109
			c0-0.613,0.496-1.109,1.109-1.109C150.463,136.597,150.96,137.094,150.96,137.706z"/>
		<path style="fill:#FEFDFD;" d="M129.41,142.777c0,0.35-0.284,0.634-0.634,0.634c-0.35,0-0.634-0.284-0.634-0.634
			c0-0.35,0.284-0.634,0.634-0.634C129.127,142.143,129.41,142.427,129.41,142.777z"/>
		<path style="fill:#FEFDFD;" d="M320.264,256.319c-0.034,0.631,0.451,1.17,1.082,1.204c0.631,0.034,1.17-0.451,1.204-1.082
			c0.034-0.631-0.451-1.17-1.082-1.204C320.837,255.203,320.298,255.688,320.264,256.319z"/>
		<path style="fill:#FEFDFD;" d="M162.527,138.103c0,0.131-0.106,0.238-0.238,0.238c-0.131,0-0.238-0.106-0.238-0.238
			c0-0.131,0.106-0.238,0.238-0.238C162.421,137.865,162.527,137.971,162.527,138.103z"/>
		<circle style="fill:#FEFDFD;" cx="149.962" cy="154.173" r="0.872"/>
		<circle style="fill:#FEFDFD;" cx="191.207" cy="140.876" r="0.634"/>
		<path style="fill:#FEFDFD;" d="M181.372,121.914c0,0.438-0.355,0.792-0.792,0.792c-0.438,0-0.792-0.355-0.792-0.792
			c0-0.438,0.355-0.792,0.792-0.792C181.017,121.122,181.372,121.477,181.372,121.914z"/>
		<path style="fill:#FEFDFD;" d="M166.678,157.263c0-0.087-0.071-0.158-0.158-0.158c-0.088,0-0.159,0.071-0.159,0.158
			c0,0.088,0.071,0.159,0.159,0.159C166.608,157.421,166.678,157.35,166.678,157.263z"/>
		<path style="fill:#FEFDFD;" d="M118.738,143.762c0,0.131-0.106,0.238-0.238,0.238c-0.131,0-0.238-0.106-0.238-0.238
			c0-0.131,0.106-0.238,0.238-0.238C118.631,143.525,118.738,143.631,118.738,143.762z"/>
		<path style="fill:#FEFDFD;" d="M63.051,155.995c0,0.175-0.142,0.317-0.317,0.317s-0.317-0.142-0.317-0.317
			s0.142-0.317,0.317-0.317S63.051,155.82,63.051,155.995z"/>
		<path style="fill:#FEFDFD;" d="M57.79,143.728c0,0.087-0.071,0.158-0.159,0.158c-0.088,0-0.158-0.071-0.158-0.158
			c0-0.088,0.071-0.159,0.158-0.159C57.719,143.569,57.79,143.64,57.79,143.728z"/>
		<path style="fill:#FEFDFD;" d="M164.46,200.441c0,0.569-0.461,1.03-1.03,1.03c-0.569,0-1.03-0.461-1.03-1.03s0.461-1.03,1.03-1.03
			C163.999,199.411,164.46,199.872,164.46,200.441z"/>
		<path style="fill:#FEFDFD;" d="M149.724,190.459c0,0.306-0.248,0.555-0.555,0.555c-0.306,0-0.555-0.248-0.555-0.555
			c0-0.306,0.248-0.555,0.555-0.555C149.476,189.904,149.724,190.152,149.724,190.459z"/>
		<path style="fill:#FEFDFD;" d="M151.309,182.061c0,0.131-0.106,0.238-0.238,0.238c-0.131,0-0.238-0.107-0.238-0.238
			c0-0.131,0.106-0.238,0.238-0.238C151.202,181.823,151.309,181.929,151.309,182.061z"/>
		<path style="fill:#FEFDFD;" d="M132.294,190.3c0,0.219-0.177,0.396-0.396,0.396c-0.219,0-0.396-0.177-0.396-0.396
			s0.177-0.396,0.396-0.396C132.117,189.904,132.294,190.081,132.294,190.3z"/>
		<path style="fill:#FEFDFD;" d="M134.671,202.422c0,0-0.177,0-0.396,0c-0.219,0-0.396,0-0.396,0s0.177,0,0.396,0
			C134.494,202.422,134.671,202.422,134.671,202.422z"/>
		<path style="fill:#FEFDFD;" d="M134.671,182.774c0,0-0.177,0-0.396,0c-0.219,0-0.396,0-0.396,0s0.177,0,0.396,0
			C134.494,182.774,134.671,182.774,134.671,182.774z"/>
		<path style="fill:#FEFDFD;" d="M195.992,181.427c0,0.306-0.248,0.555-0.555,0.555s-0.555-0.248-0.555-0.555
			c0-0.306,0.248-0.555,0.555-0.555S195.992,181.121,195.992,181.427z"/>
		<path style="fill:#FEFDFD;" d="M187.753,200.124c0,0.394-0.319,0.713-0.713,0.713s-0.713-0.319-0.713-0.713
			c0-0.394,0.319-0.713,0.713-0.713S187.753,199.73,187.753,200.124z"/>
		<path style="fill:#FEFDFD;" d="M190.256,200.612c0,0.262-0.213,0.475-0.475,0.475c-0.263,0-0.475-0.213-0.475-0.475
			s0.213-0.475,0.475-0.475C190.043,200.137,190.256,200.35,190.256,200.612z"/>
		<path style="fill:#FEFDFD;" d="M103.545,85.017c0,0-0.106,0-0.238,0c-0.131,0-0.238,0-0.238,0s0.106,0,0.238,0
			C103.439,85.017,103.545,85.017,103.545,85.017z"/>
		<circle style="fill:#FEFDFD;" cx="83.263" cy="83.433" r="0.951"/>
		<path style="fill:#FEFDFD;" d="M91.028,88.979c0,0-0.177,0-0.396,0c-0.219,0-0.396,0-0.396,0s0.177,0,0.396,0
			C90.85,88.979,91.028,88.979,91.028,88.979z"/>
		<path style="fill:#FEFDFD;" d="M95.623,82.324c0,0.613-0.497,1.109-1.109,1.109c-0.613,0-1.109-0.497-1.109-1.109
			c0-0.613,0.497-1.109,1.109-1.109C95.126,81.215,95.623,81.711,95.623,82.324z"/>
		<path style="fill:#FEFDFD;" d="M105.13,88.979c0,0-0.071,0-0.159,0c-0.087,0-0.158,0-0.158,0s0.071,0,0.158,0
			C105.059,88.979,105.13,88.979,105.13,88.979z"/>
		<circle style="fill:#FEFDFD;" cx="100.614" cy="95.238" r="1.188"/>
		<path style="fill:#FEFDFD;" d="M91.344,93.574c0-0.088-0.071-0.158-0.158-0.158s-0.159,0.071-0.159,0.158s0.071,0.159,0.159,0.159
			S91.344,93.661,91.344,93.574z"/>
		<circle style="fill:#FEFDFD;" cx="109.17" cy="82.561" r="0.872"/>
		<path style="fill:#FEFDFD;" d="M126.838,97.693c0,0.175-0.142,0.317-0.317,0.317c-0.175,0-0.317-0.142-0.317-0.317
			c0-0.175,0.142-0.317,0.317-0.317C126.696,97.377,126.838,97.519,126.838,97.693z"/>
		<path style="fill:#FEFDFD;" d="M129.056,109.102c0,0.438-0.355,0.792-0.792,0.792c-0.438,0-0.792-0.355-0.792-0.792
			c0-0.438,0.355-0.792,0.792-0.792C128.701,108.31,129.056,108.664,129.056,109.102z"/>
		<circle style="fill:#FEFDFD;" cx="145.931" cy="87.156" r="0.396"/>
		<path style="fill:#FEFDFD;" d="M123.986,101.972c0,0-0.106,0-0.238,0c-0.131,0-0.238,0-0.238,0s0.106,0,0.238,0
			C123.879,101.972,123.986,101.972,123.986,101.972z"/>
		<circle style="fill:#FEFDFD;" cx="140.782" cy="100.07" r="0.634"/>
		<circle style="fill:#FEFDFD;" cx="144.664" cy="106.804" r="0.555"/>
		<path style="fill:#FEFDFD;" d="M142.841,83.354c0,0.481-0.39,0.871-0.871,0.871c-0.481,0-0.872-0.39-0.872-0.871
			s0.39-0.871,0.872-0.871C142.451,82.482,142.841,82.872,142.841,83.354z"/>
		<circle style="fill:#FEFDFD;" cx="156.468" cy="96.267" r="0.317"/>
		<path style="fill:#FEFDFD;" d="M124.936,103.715c0,0.438-0.355,0.792-0.792,0.792c-0.438,0-0.792-0.355-0.792-0.792
			c0-0.438,0.355-0.792,0.792-0.792C124.582,102.922,124.936,103.277,124.936,103.715z"/>
		<path style="fill:#FEFDFD;" d="M122.084,87.552c0,0.088,0.071,0.159,0.158,0.159s0.159-0.071,0.159-0.159
			c0-0.088-0.071-0.158-0.159-0.158S122.084,87.465,122.084,87.552z"/>
		<path style="fill:#FEFDFD;" d="M148.704,96.109c0,0.438-0.355,0.792-0.792,0.792c-0.438,0-0.792-0.355-0.792-0.792
			c0-0.438,0.355-0.792,0.792-0.792C148.349,95.317,148.704,95.671,148.704,96.109z"/>
		<path style="fill:#FEFDFD;" d="M142.049,91.355c0,0.438-0.355,0.792-0.792,0.792c-0.438,0-0.792-0.355-0.792-0.792
			s0.355-0.792,0.792-0.792C141.694,90.563,142.049,90.918,142.049,91.355z"/>
		<circle style="fill:#FEFDFD;" cx="145.614" cy="99.516" r="0.238"/>
		<path style="fill:#FEFDFD;" d="M136.345,107.993c0,0-0.248,0-0.555,0c-0.306,0-0.555,0-0.555,0s0.248,0,0.555,0
			C136.097,107.993,136.345,107.993,136.345,107.993z"/>
		<circle style="fill:#FEFDFD;" cx="119.47" cy="54.357" r="0.555"/>
		<circle style="fill:#FEFDFD;" cx="137.137" cy="49.841" r="0.317"/>
		<circle style="fill:#FEFDFD;" cx="158.37" cy="57.764" r="0.634"/>
		<path style="fill:#FEFDFD;" d="M171.363,66.161c0,0.175-0.142,0.317-0.317,0.317c-0.175,0-0.317-0.142-0.317-0.317
			c0-0.175,0.142-0.317,0.317-0.317C171.221,65.845,171.363,65.987,171.363,66.161z"/>
		<circle style="fill:#FEFDFD;" cx="105.051" cy="57.367" r="1.822"/>
		<path style="fill:#FEFDFD;" d="M271.486,156.82c0,0.088-0.071,0.158-0.159,0.158s-0.158-0.071-0.158-0.158
			c0-0.088,0.071-0.158,0.158-0.158S271.486,156.732,271.486,156.82z"/>
		<path style="fill:#FEFDFD;" d="M298.581,151.749c0,0.175-0.142,0.317-0.317,0.317c-0.175,0-0.317-0.142-0.317-0.317
			s0.142-0.317,0.317-0.317C298.439,151.432,298.581,151.574,298.581,151.749z"/>
		<path style="fill:#FEFDFD;" d="M129.69,52.455c0,0.219-0.177,0.396-0.396,0.396c-0.219,0-0.396-0.177-0.396-0.396
			s0.177-0.396,0.396-0.396C129.513,52.059,129.69,52.237,129.69,52.455z"/>
		<path style="fill:#FEFDFD;" d="M91.028,51.822c0,0.306-0.248,0.555-0.555,0.555c-0.306,0-0.555-0.248-0.555-0.555
			c0-0.306,0.248-0.555,0.555-0.555C90.779,51.267,91.028,51.515,91.028,51.822z"/>
		<path style="fill:#FEFDFD;" d="M208.691,286.202c0,0.306-0.248,0.555-0.555,0.555c-0.306,0-0.555-0.248-0.555-0.555
			s0.248-0.555,0.555-0.555C208.442,285.647,208.691,285.896,208.691,286.202z"/>
		<path style="fill:#FEFDFD;" d="M203.033,268.54c0,0.122-0.099,0.22-0.22,0.22c-0.122,0-0.22-0.099-0.22-0.22
			c0-0.122,0.099-0.22,0.22-0.22C202.935,268.32,203.033,268.418,203.033,268.54z"/>
		<path style="fill:#FEFDFD;" d="M213.603,304.899c0,0.306-0.248,0.555-0.555,0.555c-0.306,0-0.554-0.248-0.554-0.555
			c0-0.306,0.248-0.555,0.554-0.555C213.354,304.345,213.603,304.593,213.603,304.899z"/>
		<path style="fill:#FEFDFD;" d="M238.937,290.456c0-0.791-0.641-1.432-1.432-1.432c-0.791,0-1.432,0.641-1.432,1.432
			c0,0.791,0.641,1.432,1.432,1.432C238.296,291.888,238.937,291.247,238.937,290.456z"/>
		<path style="fill:#FEFDFD;" d="M247.086,265.677c0,0.487-0.394,0.881-0.881,0.881c-0.487,0-0.881-0.395-0.881-0.881
			s0.394-0.881,0.881-0.881C246.692,264.796,247.086,265.19,247.086,265.677z"/>
		<path style="fill:#FEFDFD;" d="M224.619,300.258c0,0.243-0.197,0.44-0.441,0.44s-0.441-0.197-0.441-0.44
			c0-0.243,0.197-0.441,0.441-0.441S224.619,300.015,224.619,300.258z"/>
		<path style="fill:#FEFDFD;" d="M222.857,317.329c0,0.426-0.345,0.771-0.771,0.771c-0.426,0-0.771-0.345-0.771-0.771
			c0-0.426,0.345-0.771,0.771-0.771C222.512,316.558,222.857,316.903,222.857,317.329z"/>
		<path style="fill:#FEFDFD;" d="M268.012,277.461c0,0.547-0.444,0.991-0.991,0.991c-0.547,0-0.991-0.444-0.991-0.991
			c0-0.547,0.444-0.991,0.991-0.991C267.568,276.47,268.012,276.913,268.012,277.461z"/>
		<path style="fill:#FEFDFD;" d="M278.727,290.56c0,0.262,0,0.475,0,0.475S278.727,290.822,278.727,290.56c0-0.263,0-0.475,0-0.475
			S278.727,290.297,278.727,290.56z"/>
		<circle style="fill:#FEFDFD;" cx="234.311" cy="273.386" r="1.322"/>
		<path style="fill:#FEFDFD;" d="M256.778,283.849c0,0.426-0.345,0.771-0.771,0.771s-0.771-0.345-0.771-0.771
			c0-0.426,0.345-0.771,0.771-0.771S256.778,283.423,256.778,283.849z"/>
		<circle style="fill:#FEFDFD;" cx="254.906" cy="232.086" r="1.432"/>
		<path style="fill:#FEFDFD;" d="M220.434,228.892c0,0.243-0.197,0.441-0.44,0.441s-0.441-0.197-0.441-0.441
			s0.197-0.441,0.441-0.441S220.434,228.649,220.434,228.892z"/>
		<circle style="fill:#FEFDFD;" cx="214.474" cy="261.8" r="0.396"/>
		<path style="fill:#FEFDFD;" d="M121.797,44.63c0,0.087-0.071,0.158-0.158,0.158c-0.087,0-0.159-0.071-0.159-0.158
			c0-0.088,0.071-0.158,0.159-0.158C121.726,44.471,121.797,44.542,121.797,44.63z"/>
		<path style="fill:#FEFDFD;" d="M245.324,228.122c0,0.304-0.247,0.551-0.551,0.551c-0.304,0-0.551-0.247-0.551-0.551
			c0-0.304,0.247-0.551,0.551-0.551C245.078,227.571,245.324,227.817,245.324,228.122z"/>
		<path style="fill:#FEFDFD;" d="M74.29,115.809c0,0.263-0.213,0.475-0.475,0.475c-0.262,0-0.475-0.213-0.475-0.475
			c0-0.263,0.213-0.475,0.475-0.475C74.077,115.334,74.29,115.547,74.29,115.809z"/>
		<circle style="fill:#FEFDFD;" cx="341.87" cy="318.761" r="0.317"/>
		<path style="fill:#FEFDFD;" d="M320.003,332.943c0,0.306-0.248,0.555-0.555,0.555s-0.555-0.248-0.555-0.555
			s0.248-0.555,0.555-0.555S320.003,332.636,320.003,332.943z"/>
		<path style="fill:#FEFDFD;" d="M337.116,323.911c0-0.481-0.39-0.871-0.872-0.871c-0.481,0-0.871,0.39-0.871,0.871
			s0.39,0.871,0.871,0.871C336.726,324.782,337.116,324.392,337.116,323.911z"/>
		<path style="fill:#FEFDFD;" d="M342.503,331.992c0-0.131-0.106-0.238-0.238-0.238c-0.131,0-0.238,0.106-0.238,0.238
			c0,0.131,0.106,0.238,0.238,0.238C342.397,332.23,342.503,332.123,342.503,331.992z"/>
		<path style="fill:#FEFDFD;" d="M336.007,312.106c0,0.175-0.142,0.317-0.317,0.317c-0.175,0-0.317-0.142-0.317-0.317
			c0-0.175,0.142-0.317,0.317-0.317C335.865,311.789,336.007,311.931,336.007,312.106z"/>
		<path style="fill:#FEFDFD;" d="M372.134,313.532c0,0.175-0.142,0.317-0.317,0.317c-0.175,0-0.317-0.142-0.317-0.317
			c0-0.175,0.142-0.317,0.317-0.317C371.992,313.215,372.134,313.357,372.134,313.532z"/>
		<path style="fill:#FEFDFD;" d="M390.356,308.066c0,0.394-0.319,0.713-0.713,0.713s-0.713-0.319-0.713-0.713
			s0.319-0.713,0.713-0.713S390.356,307.672,390.356,308.066z"/>
		<circle style="fill:#FEFDFD;" cx="369.916" cy="324.465" r="0.951"/>
		<circle style="fill:#FEFDFD;" cx="362.231" cy="328.664" r="0.713"/>
		<path style="fill:#FEFDFD;" d="M371.183,306.243c0,0-0.177,0-0.396,0c-0.219,0-0.396,0-0.396,0s0.177,0,0.396,0
			C371.006,306.243,371.183,306.243,371.183,306.243z"/>
		<path style="fill:#FEFDFD;" d="M390.197,315.671c0,0.481-0.39,0.871-0.871,0.871s-0.871-0.39-0.871-0.871s0.39-0.871,0.871-0.871
			S390.197,315.19,390.197,315.671z"/>
		<path style="fill:#FEFDFD;" d="M414.758,303.708c0,0.263-0.213,0.475-0.475,0.475c-0.263,0-0.475-0.213-0.475-0.475
			c0-0.263,0.213-0.475,0.475-0.475C414.545,303.233,414.758,303.446,414.758,303.708z"/>
		<path style="fill:#FEFDFD;" d="M438.684,304.976c0,0.087,0,0.158,0,0.158S438.684,305.063,438.684,304.976s0-0.159,0-0.159
			S438.684,304.888,438.684,304.976z"/>
		<path style="fill:#FEFDFD;" d="M377.838,306.56c0,0.263-0.213,0.475-0.475,0.475s-0.475-0.213-0.475-0.475
			s0.213-0.475,0.475-0.475S377.838,306.298,377.838,306.56z"/>
		<circle style="fill:#FEFDFD;" cx="361.359" cy="314.8" r="0.317"/>
		<path style="fill:#FEFDFD;" d="M382.909,317.018c0,0.438-0.355,0.792-0.792,0.792c-0.438,0-0.792-0.355-0.792-0.792
			c0-0.438,0.355-0.792,0.792-0.792C382.554,316.226,382.909,316.581,382.909,317.018z"/>
		<circle style="fill:#FEFDFD;" cx="363.521" cy="279.268" r="0.317"/>
		<circle style="fill:#FEFDFD;" cx="333.891" cy="277.208" r="0.951"/>
		<circle style="fill:#FEFDFD;" cx="323.274" cy="280.852" r="0.634"/>
		<circle style="fill:#FEFDFD;" cx="295.299" cy="269.75" r="0.951"/>
		<path style="fill:#FEFDFD;" d="M329.62,273.801c0,0.306-0.248,0.555-0.555,0.555c-0.306,0-0.555-0.248-0.555-0.555
			c0-0.306,0.248-0.555,0.555-0.555C329.372,273.247,329.62,273.495,329.62,273.801z"/>
		<path style="fill:#FEFDFD;" d="M361.042,285.328c0,0.438-0.355,0.792-0.792,0.792c-0.438,0-0.792-0.355-0.792-0.792
			c0-0.438,0.355-0.792,0.792-0.792C360.688,284.535,361.042,284.89,361.042,285.328z"/>
		<path style="fill:#FEFDFD;" d="M343.944,273.553c0,0.087,0.071,0.158,0.158,0.158c0.087,0,0.158-0.071,0.158-0.158
			s-0.071-0.159-0.158-0.159C344.015,273.395,343.944,273.466,343.944,273.553z"/>
		<path style="fill:#FEFDFD;" d="M420.089,277.525c0,1.225-0.993,2.218-2.218,2.218c-1.225,0-2.218-0.993-2.218-2.218
			c0-1.225,0.993-2.218,2.218-2.218C419.096,275.306,420.089,276.3,420.089,277.525z"/>
		<path style="fill:#FEFDFD;" d="M383.962,278.159c0,0.263,0.213,0.475,0.475,0.475c0.263,0,0.475-0.213,0.475-0.475
			c0-0.263-0.213-0.475-0.475-0.475C384.174,277.683,383.962,277.896,383.962,278.159z"/>
		<path style="fill:#FEFDFD;" d="M350.377,271.741c0,0.569-0.461,1.03-1.03,1.03c-0.569,0-1.03-0.461-1.03-1.03
			c0-0.569,0.461-1.03,1.03-1.03C349.916,270.711,350.377,271.172,350.377,271.741z"/>
		<path style="fill:#FEFDFD;" d="M290.482,275.465c0-0.087-0.071-0.159-0.158-0.159s-0.159,0.071-0.159,0.159
			s0.071,0.158,0.159,0.158S290.482,275.552,290.482,275.465z"/>
		<path style="fill:#FEFDFD;" d="M249.86,244.679c0,0.243,0,0.441,0,0.441S249.86,244.922,249.86,244.679s0-0.441,0-0.441
			S249.86,244.436,249.86,244.679z"/>
		<circle style="fill:#FEFDFD;" cx="139.532" cy="357.532" r="0.919"/>
		<path style="fill:#FEFDFD;" d="M139.302,374.185c0-0.571-0.463-1.034-1.034-1.034c-0.571,0-1.034,0.463-1.034,1.034
			c0,0.571,0.463,1.034,1.034,1.034C138.839,375.219,139.302,374.756,139.302,374.185z"/>
		<path style="fill:#FEFDFD;" d="M166.177,365.342c0,0.254-0.206,0.459-0.459,0.459c-0.254,0-0.459-0.206-0.459-0.459
			c0-0.254,0.206-0.459,0.459-0.459C165.971,364.883,166.177,365.088,166.177,365.342z"/>
		<path style="fill:#FEFDFD;" d="M168.933,376.942c0-0.317-0.257-0.574-0.574-0.574c-0.317,0-0.574,0.257-0.574,0.574
			c0,0.317,0.257,0.574,0.574,0.574C168.676,377.516,168.933,377.259,168.933,376.942z"/>
		<path style="fill:#FEFDFD;" d="M158.367,386.015c0,0.761-0.617,1.378-1.378,1.378c-0.761,0-1.378-0.617-1.378-1.378
			c0-0.761,0.617-1.378,1.378-1.378C157.75,384.637,158.367,385.254,158.367,386.015z"/>
		<path style="fill:#FEFDFD;" d="M176.513,392.561c0-0.19-0.154-0.345-0.345-0.345c-0.19,0-0.344,0.154-0.344,0.345
			c0,0.19,0.154,0.344,0.344,0.344C176.359,392.906,176.513,392.752,176.513,392.561z"/>
		<circle style="fill:#FEFDFD;" cx="162.731" cy="371.314" r="0.689"/>
		<path style="fill:#FEFDFD;" d="M139.302,365.227c0,0.19-0.154,0.344-0.345,0.344c-0.19,0-0.345-0.154-0.345-0.344
			c0-0.19,0.154-0.345,0.345-0.345C139.148,364.883,139.302,365.037,139.302,365.227z"/>
		<path style="fill:#FEFDFD;" d="M158.367,372.922c0-0.761-0.617-1.378-1.378-1.378c-0.761,0-1.378,0.617-1.378,1.378
			c0,0.761,0.617,1.378,1.378,1.378C157.75,374.3,158.367,373.683,158.367,372.922z"/>
		<circle style="fill:#FEFDFD;" cx="165.028" cy="328.131" r="0.689"/>
		<path style="fill:#FEFDFD;" d="M176.743,320.436c0,0.19-0.154,0.345-0.345,0.345c-0.19,0-0.344-0.154-0.344-0.345
			c0-0.19,0.154-0.345,0.344-0.345C176.589,320.091,176.743,320.246,176.743,320.436z"/>
		<circle style="fill:#FEFDFD;" cx="198.565" cy="328.82" r="0.23"/>
		<path style="fill:#FEFDFD;" d="M155.841,329.279c0,0.127,0,0.23,0,0.23S155.841,329.406,155.841,329.279s0-0.23,0-0.23
			S155.841,329.152,155.841,329.279z"/>
		<circle style="fill:#FEFDFD;" cx="131.492" cy="324.685" r="0.459"/>
		<path style="fill:#FEFDFD;" d="M124.372,335.251c0,0.127,0,0.23,0,0.23S124.372,335.378,124.372,335.251c0-0.127,0-0.23,0-0.23
			S124.372,335.125,124.372,335.251z"/>
		<path style="fill:#FEFDFD;" d="M72.935,429.149c0,0.175-0.142,0.317-0.317,0.317c-0.175,0-0.317-0.142-0.317-0.317
			c0-0.175,0.142-0.317,0.317-0.317C72.793,428.832,72.935,428.974,72.935,429.149z"/>
		<circle style="fill:#FEFDFD;" cx="81.174" cy="423.603" r="0.317"/>
		<path style="fill:#FEFDFD;" d="M92.266,430.1c0,0-0.39,0-0.871,0s-0.871,0-0.871,0s0.39,0,0.871,0S92.266,430.1,92.266,430.1z"/>
		<path style="fill:#FEFDFD;" d="M75.153,436.359c0,0.131-0.106,0.238-0.238,0.238c-0.131,0-0.238-0.106-0.238-0.238
			c0-0.131,0.106-0.238,0.238-0.238C75.047,436.121,75.153,436.228,75.153,436.359z"/>
		<path style="fill:#FEFDFD;" d="M87.195,431.764c0,0.219-0.177,0.396-0.396,0.396c-0.219,0-0.396-0.177-0.396-0.396
			c0-0.219,0.177-0.396,0.396-0.396C87.018,431.368,87.195,431.545,87.195,431.764z"/>
		<path style="fill:#FEFDFD;" d="M93.058,436.834c0-0.219-0.177-0.396-0.396-0.396c-0.219,0-0.396,0.177-0.396,0.396
			c0,0.219,0.177,0.396,0.396,0.396C92.881,437.23,93.058,437.053,93.058,436.834z"/>
		<circle style="fill:#FEFDFD;" cx="110.884" cy="427.169" r="0.713"/>
		<path style="fill:#FEFDFD;" d="M91.017,425.486c0.186,0.186,0.186,0.487,0,0.672c-0.186,0.186-0.487,0.186-0.672,0
			c-0.186-0.186-0.186-0.487,0-0.672C90.531,425.3,90.832,425.3,91.017,425.486z"/>
		<circle style="fill:#FEFDFD;" cx="106.289" cy="430.179" r="0.238"/>
		<path style="fill:#FEFDFD;" d="M104.625,438.973c0,0-0.319,0-0.713,0s-0.713,0-0.713,0s0.319,0,0.713,0
			S104.625,438.973,104.625,438.973z"/>
		<path style="fill:#FEFDFD;" d="M50.751,427.802c0,0.131-0.106,0.238-0.238,0.238c-0.131,0-0.238-0.106-0.238-0.238
			c0-0.131,0.106-0.238,0.238-0.238C50.645,427.565,50.751,427.671,50.751,427.802z"/>
		<path style="fill:#FEFDFD;" d="M61.843,438.419c0-0.219-0.177-0.396-0.396-0.396s-0.396,0.177-0.396,0.396
			c0,0.219,0.177,0.396,0.396,0.396S61.843,438.638,61.843,438.419z"/>
		<path style="fill:#FEFDFD;" d="M130.136,425.505c0,0.175-0.142,0.317-0.317,0.317c-0.175,0-0.317-0.142-0.317-0.317
			c0-0.175,0.142-0.317,0.317-0.317C129.994,425.188,130.136,425.33,130.136,425.505z"/>
		<path style="fill:#FEFDFD;" d="M127.284,436.438c0-0.175,0-0.317,0-0.317S127.284,436.263,127.284,436.438
			c0,0.175,0,0.317,0,0.317S127.284,436.613,127.284,436.438z"/>
		<path style="fill:#FEFDFD;" d="M96.861,395.557c0,0.175-0.142,0.317-0.317,0.317c-0.175,0-0.317-0.142-0.317-0.317
			c0-0.175,0.142-0.317,0.317-0.317C96.719,395.241,96.861,395.383,96.861,395.557z"/>
		<path style="fill:#FEFDFD;" d="M79.431,394.211c0,0.131-0.106,0.238-0.238,0.238c-0.131,0-0.238-0.106-0.238-0.238
			c0-0.131,0.106-0.238,0.238-0.238C79.325,393.973,79.431,394.079,79.431,394.211z"/>
		<path style="fill:#FEFDFD;" d="M77.847,400.311c0,0.525-0.426,0.951-0.951,0.951c-0.525,0-0.951-0.426-0.951-0.951
			c0-0.525,0.426-0.951,0.951-0.951C77.421,399.36,77.847,399.786,77.847,400.311z"/>
		<circle style="fill:#FEFDFD;" cx="115.954" cy="390.091" r="0.238"/>
		<circle style="fill:#FEFDFD;" cx="86.799" cy="387.08" r="0.872"/>
		<circle style="fill:#FEFDFD;" cx="58.04" cy="389.853" r="0.317"/>
		<path style="fill:#FEFDFD;" d="M276.035,423.396c0,0-0.355,0-0.792,0c-0.438,0-0.792,0-0.792,0s0.355,0,0.792,0
			C275.68,423.396,276.035,423.396,276.035,423.396z"/>
		<path style="fill:#FEFDFD;" d="M275.718,412.383c0,0.394-0.319,0.713-0.713,0.713c-0.394,0-0.713-0.319-0.713-0.713
			s0.319-0.713,0.713-0.713C275.399,411.67,275.718,411.99,275.718,412.383z"/>
		<path style="fill:#FEFDFD;" d="M274.926,434.963c0-0.438-0.355-0.792-0.792-0.792c-0.437,0-0.792,0.355-0.792,0.792
			c0,0.438,0.355,0.792,0.792,0.792C274.571,435.755,274.926,435.4,274.926,434.963z"/>
		<path style="fill:#FEFDFD;" d="M266.211,439.4c0,0-0.426,0-0.951,0c-0.525,0-0.951,0-0.951,0s0.426,0,0.951,0
			C265.785,439.4,266.211,439.4,266.211,439.4z"/>
		<path style="fill:#FEFDFD;" d="M289.028,424.346c0,0.087-0.071,0.158-0.158,0.158c-0.088,0-0.159-0.071-0.159-0.158
			s0.071-0.159,0.159-0.159C288.957,424.188,289.028,424.259,289.028,424.346z"/>
		<circle style="fill:#FEFDFD;" cx="298.614" cy="434.25" r="1.188"/>
		<path style="fill:#FEFDFD;" d="M287.76,442.727c0,0-0.319,0-0.713,0s-0.713,0-0.713,0s0.319,0,0.713,0
			S287.76,442.727,287.76,442.727z"/>
		<path style="fill:#FEFDFD;" d="M270.648,422.128c0,0.7-0.568,1.268-1.268,1.268c-0.7,0-1.268-0.568-1.268-1.268
			s0.568-1.268,1.268-1.268C270.08,420.861,270.648,421.428,270.648,422.128z"/>
		<path style="fill:#FEFDFD;" d="M247.989,434.487c0,0-0.106,0-0.238,0c-0.131,0-0.238,0-0.238,0s0.106,0,0.238,0
			C247.882,434.487,247.989,434.487,247.989,434.487z"/>
		<path style="fill:#FEFDFD;" d="M261.457,443.915c0-0.306-0.248-0.555-0.555-0.555c-0.306,0-0.555,0.248-0.555,0.555
			c0,0.306,0.248,0.555,0.555,0.555C261.209,444.47,261.457,444.222,261.457,443.915z"/>
		<path style="fill:#FEFDFD;" d="M269.221,445.658c0-0.131-0.106-0.238-0.238-0.238c-0.131,0-0.238,0.107-0.238,0.238
			c0,0.131,0.106,0.238,0.238,0.238C269.115,445.896,269.221,445.79,269.221,445.658z"/>
		<path style="fill:#FEFDFD;" d="M276.827,425.06c0,0.219-0.177,0.396-0.396,0.396s-0.396-0.177-0.396-0.396
			c0-0.219,0.177-0.396,0.396-0.396S276.827,424.841,276.827,425.06z"/>
		<circle style="fill:#FEFDFD;" cx="286.493" cy="436.389" r="0.951"/>
		<path style="fill:#FEFDFD;" d="M303.447,420.306c0,0.219-0.177,0.396-0.396,0.396c-0.219,0-0.396-0.177-0.396-0.396
			c0-0.219,0.177-0.396,0.396-0.396C303.27,419.91,303.447,420.087,303.447,420.306z"/>
		<path style="fill:#FEFDFD;" d="M320.718,437.577c0,0.481-0.39,0.871-0.871,0.871s-0.871-0.39-0.871-0.871
			c0-0.481,0.39-0.871,0.871-0.871S320.718,437.096,320.718,437.577z"/>
		<path style="fill:#FEFDFD;" d="M332.761,412.542c0,0.219-0.177,0.396-0.396,0.396s-0.396-0.177-0.396-0.396
			c0-0.219,0.177-0.396,0.396-0.396S332.761,412.323,332.761,412.542z"/>
		<path style="fill:#FEFDFD;" d="M330.859,437.894c0,0.481-0.39,0.871-0.871,0.871s-0.871-0.39-0.871-0.871s0.39-0.871,0.871-0.871
			S330.859,437.413,330.859,437.894z"/>
		<path style="fill:#FEFDFD;" d="M310.736,421.732c0,0.219-0.177,0.396-0.396,0.396c-0.219,0-0.396-0.177-0.396-0.396
			c0-0.219,0.177-0.396,0.396-0.396C310.559,421.336,310.736,421.513,310.736,421.732z"/>
		<path style="fill:#FEFDFD;" d="M329.75,422.128c0,0.175-0.142,0.317-0.317,0.317c-0.175,0-0.317-0.142-0.317-0.317
			c0-0.175,0.142-0.317,0.317-0.317C329.608,421.811,329.75,421.953,329.75,422.128z"/>
		<path style="fill:#FEFDFD;" d="M320.56,431.16c0-0.263-0.213-0.475-0.475-0.475c-0.263,0-0.475,0.213-0.475,0.475
			c0,0.263,0.213,0.475,0.475,0.475C320.347,431.635,320.56,431.422,320.56,431.16z"/>
		<circle style="fill:#FEFDFD;" cx="355.974" cy="415.552" r="0.238"/>
		<path style="fill:#FEFDFD;" d="M364.61,431.477c0,0-0.426,0-0.951,0c-0.525,0-0.951,0-0.951,0s0.426,0,0.951,0
			C364.184,431.477,364.61,431.477,364.61,431.477z"/>
		<path style="fill:#FEFDFD;" d="M353.36,437.894c0,0.569-0.461,1.03-1.03,1.03c-0.569,0-1.03-0.461-1.03-1.03
			c0-0.569,0.461-1.03,1.03-1.03C352.898,436.864,353.36,437.325,353.36,437.894z"/>
		<path style="fill:#FEFDFD;" d="M348.289,444.391c0-0.219-0.177-0.396-0.396-0.396c-0.219,0-0.396,0.177-0.396,0.396
			c0,0.219,0.177,0.396,0.396,0.396C348.112,444.787,348.289,444.609,348.289,444.391z"/>
		<path style="fill:#FEFDFD;" d="M346.388,420.861c0-0.35-0.284-0.634-0.634-0.634c-0.35,0-0.634,0.284-0.634,0.634
			c0,0.35,0.284,0.634,0.634,0.634C346.104,421.494,346.388,421.211,346.388,420.861z"/>
		<path style="fill:#FEFDFD;" d="M355.103,419.435c0,0.613-0.497,1.109-1.109,1.109c-0.612,0-1.109-0.497-1.109-1.109
			c0-0.613,0.497-1.109,1.109-1.109C354.606,418.325,355.103,418.822,355.103,419.435z"/>
		<path style="fill:#FEFDFD;" d="M360.331,431.239c0-0.306-0.248-0.555-0.555-0.555c-0.306,0-0.555,0.248-0.555,0.555
			s0.248,0.555,0.555,0.555C360.083,431.794,360.331,431.546,360.331,431.239z"/>
		<path style="fill:#FEFDFD;" d="M373.325,445.817c0-0.306-0.248-0.555-0.555-0.555s-0.555,0.248-0.555,0.555
			s0.248,0.555,0.555,0.555S373.325,446.123,373.325,445.817z"/>
		<circle style="fill:#FEFDFD;" cx="385.842" cy="424.188" r="0.317"/>
		<path style="fill:#FEFDFD;" d="M382.673,440.033c0-0.613-0.497-1.109-1.109-1.109s-1.109,0.497-1.109,1.109
			c0,0.613,0.496,1.109,1.109,1.109S382.673,440.646,382.673,440.033z"/>
		<path style="fill:#FEFDFD;" d="M384.733,413.651c0,0.306-0.248,0.555-0.555,0.555s-0.555-0.248-0.555-0.555
			s0.248-0.555,0.555-0.555S384.733,413.345,384.733,413.651z"/>
		<path style="fill:#FEFDFD;" d="M383.783,434.329c0,0-0.461,0-1.03,0c-0.569,0-1.03,0-1.03,0s0.461,0,1.03,0
			C383.321,434.329,383.783,434.329,383.783,434.329z"/>
		<path style="fill:#FEFDFD;" d="M382.198,420.068c0,0.263-0.213,0.475-0.475,0.475c-0.263,0-0.475-0.213-0.475-0.475
			s0.213-0.475,0.475-0.475C381.985,419.593,382.198,419.806,382.198,420.068z"/>
		<path style="fill:#FEFDFD;" d="M408.501,413.413c0,0.613-0.497,1.109-1.109,1.109c-0.612,0-1.109-0.497-1.109-1.109
			s0.497-1.109,1.109-1.109C408.004,412.304,408.501,412.801,408.501,413.413z"/>
		<path style="fill:#FEFDFD;" d="M410.244,429.1c0,0-0.177,0-0.396,0c-0.219,0-0.396,0-0.396,0s0.177,0,0.396,0
			C410.067,429.1,410.244,429.1,410.244,429.1z"/>
		<path style="fill:#FEFDFD;" d="M402.955,437.181c0,0.525-0.426,0.951-0.951,0.951c-0.525,0-0.951-0.426-0.951-0.951
			c0-0.525,0.426-0.951,0.951-0.951C402.529,436.23,402.955,436.656,402.955,437.181z"/>
		<path style="fill:#FEFDFD;" d="M403.43,448.431c0-0.438-0.355-0.792-0.792-0.792c-0.438,0-0.792,0.355-0.792,0.792
			c0,0.438,0.355,0.792,0.792,0.792C403.076,449.224,403.43,448.869,403.43,448.431z"/>
		<path style="fill:#FEFDFD;" d="M431.635,424.505c0,0.088,0.071,0.158,0.158,0.158c0.088,0,0.158-0.071,0.158-0.158
			c0-0.088-0.071-0.158-0.158-0.158C431.706,424.346,431.635,424.417,431.635,424.505z"/>
		<path style="fill:#FEFDFD;" d="M353.828,363.293c0,0.088-0.071,0.159-0.159,0.159s-0.158-0.071-0.158-0.159
			c0-0.087,0.071-0.158,0.158-0.158S353.828,363.206,353.828,363.293z"/>
		<path style="fill:#FEFDFD;" d="M380.286,351.946c0,0.131-0.106,0.238-0.238,0.238c-0.131,0-0.238-0.106-0.238-0.238
			c0-0.131,0.106-0.238,0.238-0.238C380.179,351.709,380.286,351.815,380.286,351.946z"/>
		<path style="fill:#FEFDFD;" d="M359.698,373.721c0,0.131-0.106,0.238-0.238,0.238c-0.131,0-0.238-0.106-0.238-0.238
			c0-0.131,0.106-0.238,0.238-0.238C359.591,373.483,359.698,373.59,359.698,373.721z"/>
		<path style="fill:#FEFDFD;" d="M334.655,364.085c0,0.438-0.355,0.792-0.792,0.792c-0.438,0-0.792-0.355-0.792-0.792
			c0-0.438,0.355-0.792,0.792-0.792C334.301,363.293,334.655,363.648,334.655,364.085z"/>
		<path style="fill:#FEFDFD;" d="M308.349,345.846c0,0.875-0.709,1.585-1.585,1.585s-1.585-0.709-1.585-1.585
			c0-0.875,0.709-1.585,1.585-1.585S308.349,344.971,308.349,345.846z"/>
		<path style="fill:#FEFDFD;" d="M281.739,372.77c0,0.131-0.106,0.238-0.238,0.238c-0.131,0-0.238-0.106-0.238-0.238
			c0-0.131,0.106-0.238,0.238-0.238C281.633,372.533,281.739,372.639,281.739,372.77z"/>
		<path style="fill:#FEFDFD;" d="M266.686,375.622c0,0.481-0.39,0.871-0.871,0.871s-0.871-0.39-0.871-0.871
			c0-0.481,0.39-0.871,0.871-0.871S266.686,375.141,266.686,375.622z"/>
		<path style="fill:#FEFDFD;" d="M259.556,384.575c0-0.175-0.142-0.317-0.317-0.317c-0.175,0-0.317,0.142-0.317,0.317
			c0,0.175,0.142,0.317,0.317,0.317C259.414,384.892,259.556,384.75,259.556,384.575z"/>
		<path style="fill:#FEFDFD;" d="M270.806,389.091c0-0.131-0.106-0.238-0.238-0.238c-0.131,0-0.238,0.106-0.238,0.238
			c0,0.131,0.106,0.238,0.238,0.238C270.7,389.329,270.806,389.222,270.806,389.091z"/>
		<path style="fill:#FEFDFD;" d="M293.306,366.194c0,0.525-0.426,0.951-0.951,0.951c-0.525,0-0.951-0.426-0.951-0.951
			c0-0.525,0.426-0.951,0.951-0.951C292.881,365.244,293.306,365.669,293.306,366.194z"/>
		<path style="fill:#FEFDFD;" d="M277.87,343.985c0,0.131-0.106,0.238-0.238,0.238c-0.131,0-0.238-0.106-0.238-0.238
			c0-0.131,0.106-0.238,0.238-0.238C277.763,343.747,277.87,343.854,277.87,343.985z"/>
		<path style="fill:#FEFDFD;" d="M305.18,345.767c0,0.219-0.177,0.396-0.396,0.396c-0.219,0-0.396-0.177-0.396-0.396
			c0-0.219,0.177-0.396,0.396-0.396C305.002,345.371,305.18,345.548,305.18,345.767z"/>
		<path style="fill:#FEFDFD;" d="M350.497,342.36c0,0.175-0.142,0.317-0.317,0.317c-0.175,0-0.317-0.142-0.317-0.317
			c0-0.175,0.142-0.317,0.317-0.317C350.355,342.043,350.497,342.185,350.497,342.36z"/>
		<path style="fill:#FEFDFD;" d="M335.285,344.737c0,0-0.177,0-0.396,0c-0.219,0-0.396,0-0.396,0s0.177,0,0.396,0
			C335.108,344.737,335.285,344.737,335.285,344.737z"/>
		<path style="fill:#FEFDFD;" d="M357.469,352.026c0,0.35-0.284,0.634-0.634,0.634c-0.35,0-0.634-0.284-0.634-0.634
			c0-0.35,0.284-0.634,0.634-0.634C357.185,351.392,357.469,351.676,357.469,352.026z"/>
		<path style="fill:#FEFDFD;" d="M351.617,379.267c0-1.094-0.887-1.981-1.981-1.981s-1.981,0.887-1.981,1.981
			c0,1.094,0.887,1.981,1.981,1.981S351.617,380.361,351.617,379.267z"/>
		<path style="fill:#FEFDFD;" d="M373.156,345.45c0,0.131-0.106,0.238-0.238,0.238c-0.131,0-0.238-0.106-0.238-0.238
			c0-0.131,0.106-0.238,0.238-0.238C373.049,345.212,373.156,345.319,373.156,345.45z"/>
		<path style="fill:#FEFDFD;" d="M392.328,346.876c0,0.219-0.177,0.396-0.396,0.396c-0.219,0-0.396-0.177-0.396-0.396
			c0-0.219,0.177-0.396,0.396-0.396C392.151,346.48,392.328,346.657,392.328,346.876z"/>
		<circle style="fill:#FEFDFD;" cx="381.723" cy="371.582" r="1.268"/>
		<path style="fill:#FEFDFD;" d="M412.452,345.133c0,0.131-0.106,0.238-0.238,0.238c-0.131,0-0.238-0.106-0.238-0.238
			c0-0.131,0.106-0.238,0.238-0.238C412.345,344.895,412.452,345.002,412.452,345.133z"/>
		<path style="fill:#FEFDFD;" d="M428.772,349.886c0,0.219-0.177,0.396-0.396,0.396c-0.219,0-0.396-0.177-0.396-0.396
			c0-0.219,0.177-0.396,0.396-0.396C428.595,349.49,428.772,349.668,428.772,349.886z"/>
		<path style="fill:#FEFDFD;" d="M425.297,370.156c0,0.438-0.355,0.792-0.792,0.792c-0.438,0-0.792-0.355-0.792-0.792
			c0-0.438,0.355-0.792,0.792-0.792C424.942,369.364,425.297,369.718,425.297,370.156z"/>
		<circle style="fill:#FEFDFD;" cx="64.783" cy="262.76" r="0.634"/>
		<circle style="fill:#FEFDFD;" cx="48.463" cy="299.204" r="0.951"/>
		<path style="fill:#FEFDFD;" d="M51.702,250.105c0,0.262-0.213,0.475-0.475,0.475c-0.263,0-0.475-0.213-0.475-0.475
			s0.213-0.475,0.475-0.475C51.489,249.63,51.702,249.843,51.702,250.105z"/>
		<circle style="fill:#FEFDFD;" cx="32.697" cy="283.755" r="1.03"/>
		<path style="fill:#FEFDFD;" d="M58.92,303.879c0,0.131-0.106,0.238-0.238,0.238c-0.131,0-0.238-0.106-0.238-0.238
			c0-0.131,0.106-0.238,0.238-0.238C58.814,303.641,58.92,303.747,58.92,303.879z"/>
		<path style="fill:#FEFDFD;" d="M64.149,320.912c0-0.35-0.284-0.634-0.634-0.634c-0.35,0-0.634,0.284-0.634,0.634
			c0,0.35,0.284,0.634,0.634,0.634C63.866,321.546,64.149,321.262,64.149,320.912z"/>
		<path style="fill:#FEFDFD;" d="M66.03,316.578c0-0.612-0.497-1.109-1.109-1.109c-0.613,0-1.109,0.497-1.109,1.109
			c0,0.613,0.497,1.109,1.109,1.109C65.533,317.687,66.03,317.19,66.03,316.578z"/>
		<circle style="fill:#FEFDFD;" cx="89.796" cy="315.759" r="0.396"/>
		<path style="fill:#FEFDFD;" d="M90.611,323.923c0,0.263-0.213,0.475-0.475,0.475c-0.262,0-0.475-0.213-0.475-0.475
			c0-0.262,0.213-0.475,0.475-0.475C90.398,323.448,90.611,323.66,90.611,323.923z"/>
		<path style="fill:#FEFDFD;" d="M97.107,308.315c0,0.306-0.248,0.555-0.555,0.555c-0.306,0-0.555-0.248-0.555-0.555
			s0.248-0.555,0.555-0.555C96.859,307.761,97.107,308.009,97.107,308.315z"/>
		<circle style="fill:#FEFDFD;" cx="110.813" cy="317.822" r="1.188"/>
		<path style="fill:#FEFDFD;" d="M84.114,310.613c0,0.262-0.213,0.475-0.475,0.475c-0.263,0-0.475-0.213-0.475-0.475
			c0-0.263,0.213-0.475,0.475-0.475C83.901,310.138,84.114,310.35,84.114,310.613z"/>
		<path style="fill:#FEFDFD;" d="M108.833,312.118c0-0.131-0.106-0.238-0.238-0.238s-0.238,0.106-0.238,0.238
			c0,0.131,0.106,0.238,0.238,0.238S108.833,312.249,108.833,312.118z"/>
		<path style="fill:#FEFDFD;" d="M123.569,302.294c0,0.481-0.39,0.871-0.871,0.871c-0.481,0-0.871-0.39-0.871-0.871
			s0.39-0.871,0.871-0.871C123.179,301.423,123.569,301.813,123.569,302.294z"/>
		<path style="fill:#FEFDFD;" d="M102.336,319.011c0,0.262-0.213,0.475-0.475,0.475c-0.263,0-0.475-0.213-0.475-0.475
			c0-0.263,0.213-0.475,0.475-0.475C102.123,318.535,102.336,318.748,102.336,319.011z"/>
		<path style="fill:#FEFDFD;" d="M114.696,303.403c0,0.219-0.177,0.396-0.396,0.396c-0.219,0-0.396-0.177-0.396-0.396
			c0-0.219,0.177-0.396,0.396-0.396C114.518,303.007,114.696,303.185,114.696,303.403z"/>
		<circle style="fill:#FEFDFD;" cx="127.768" cy="310.375" r="1.188"/>
		<path style="fill:#FEFDFD;" d="M136.72,297.54c0-0.219-0.177-0.396-0.396-0.396c-0.219,0-0.396,0.177-0.396,0.396
			c0,0.219,0.177,0.396,0.396,0.396C136.543,297.937,136.72,297.759,136.72,297.54z"/>
		<path style="fill:#FEFDFD;" d="M181.302,262.123c0,0.087,0,0.159,0,0.159S181.302,262.211,181.302,262.123s0-0.158,0-0.158
			S181.302,262.036,181.302,262.123z"/>
		<circle style="fill:#FEFDFD;" cx="106.377" cy="262.998" r="0.872"/>
		<path style="fill:#FEFDFD;" d="M86.808,270.524c0.525,0,0.951,0.426,0.951,0.951c0,0.525-0.426,0.951-0.951,0.951
			c-0.525,0-0.951-0.426-0.951-0.951C85.857,270.95,86.283,270.524,86.808,270.524z"/>
		<path style="fill:#FEFDFD;" d="M70.875,245.273c0-0.306-0.248-0.555-0.555-0.555c-0.306,0-0.555,0.248-0.555,0.555
			c0,0.306,0.248,0.555,0.555,0.555C70.626,245.827,70.875,245.579,70.875,245.273z"/>
		<path style="fill:#FEFDFD;" d="M153.358,267.91c0,0.744-0.603,1.347-1.347,1.347s-1.347-0.603-1.347-1.347
			c0-0.744,0.603-1.347,1.347-1.347S153.358,267.166,153.358,267.91z"/>
		<circle style="fill:#FEFDFD;" cx="136.087" cy="267.355" r="0.634"/>
		<circle style="fill:#FEFDFD;" cx="125.462" cy="246.857" r="0.555"/>
		<path style="fill:#FEFDFD;" d="M105.1,242.816c0,0.262-0.213,0.475-0.475,0.475c-0.262,0-0.475-0.213-0.475-0.475
			s0.213-0.475,0.475-0.475C104.888,242.341,105.1,242.554,105.1,242.816z"/>
		<path style="fill:#FEFDFD;" d="M87.671,245.906c0,0.219-0.177,0.396-0.396,0.396c-0.219,0-0.396-0.177-0.396-0.396
			c0-0.219,0.177-0.396,0.396-0.396C87.493,245.51,87.671,245.688,87.671,245.906z"/>
		<circle style="fill:#FEFDFD;" cx="100.91" cy="276.704" r="0.951"/>
		<g>
			<ellipse style="opacity:0.07;fill:#FFFFFF;" cx="170.64" cy="229.128" rx="8.191" ry="7.557"/>
			<path style="opacity:0.07;fill:#FFFFFF;" d="M176.815,229.128c0,3.146-2.765,5.697-6.175,5.697c-3.41,0-6.175-2.55-6.175-5.697
				c0-3.146,2.765-5.697,6.175-5.697C174.05,223.431,176.815,225.982,176.815,229.128z"/>
			<path style="opacity:0.07;fill:#FFFFFF;" d="M174.897,229.155c0,2.19-1.924,3.965-4.298,3.965c-2.373,0-4.298-1.775-4.298-3.965
				s1.924-3.965,4.298-3.965C172.973,225.19,174.897,226.965,174.897,229.155z"/>
			<path style="opacity:0.07;fill:#FFFFFF;" d="M172.779,229.128c0,1.09-0.958,1.974-2.139,1.974c-1.181,0-2.139-0.884-2.139-1.974
				c0-1.09,0.958-1.974,2.139-1.974C171.821,227.154,172.779,228.038,172.779,229.128z"/>
		</g>
		<g>
			<ellipse style="opacity:0.07;fill:#FFFFFF;" cx="178.425" cy="180.528" rx="8.191" ry="7.557"/>
			<ellipse style="opacity:0.07;fill:#FFFFFF;" cx="178.425" cy="180.528" rx="6.175" ry="5.696"/>
			<path style="opacity:0.07;fill:#FFFFFF;" d="M182.682,180.555c0,2.19-1.924,3.965-4.298,3.965c-2.374,0-4.298-1.775-4.298-3.965
				s1.924-3.965,4.298-3.965C180.758,176.591,182.682,178.366,182.682,180.555z"/>
			<ellipse style="opacity:0.07;fill:#FFFFFF;" cx="178.425" cy="180.528" rx="2.139" ry="1.974"/>
		</g>
		<g>
			<ellipse style="opacity:0.07;fill:#FFFFFF;" cx="66.243" cy="160.973" rx="8.191" ry="7.557"/>
			<path style="opacity:0.07;fill:#FFFFFF;" d="M72.418,160.973c0,3.146-2.764,5.697-6.175,5.697s-6.175-2.55-6.175-5.697
				s2.764-5.697,6.175-5.697S72.418,157.827,72.418,160.973z"/>
			<ellipse style="opacity:0.07;fill:#FFFFFF;" cx="66.202" cy="161" rx="4.298" ry="3.965"/>
			<path style="opacity:0.07;fill:#FFFFFF;" d="M68.382,160.973c0,1.09-0.958,1.974-2.139,1.974c-1.182,0-2.139-0.884-2.139-1.974
				c0-1.09,0.958-1.974,2.139-1.974C67.424,158.999,68.382,159.883,68.382,160.973z"/>
		</g>
		<g>
			<ellipse style="opacity:0.07;fill:#FFFFFF;" cx="216.324" cy="68.912" rx="8.191" ry="7.557"/>
			<path style="opacity:0.07;fill:#FFFFFF;" d="M222.499,68.912c0,3.146-2.765,5.697-6.175,5.697c-3.41,0-6.175-2.55-6.175-5.697
				c0-3.146,2.765-5.697,6.175-5.697C219.734,63.215,222.499,65.766,222.499,68.912z"/>
			<path style="opacity:0.07;fill:#FFFFFF;" d="M220.581,68.939c0,2.19-1.924,3.965-4.298,3.965c-2.373,0-4.298-1.775-4.298-3.965
				c0-2.19,1.924-3.965,4.298-3.965C218.657,64.974,220.581,66.749,220.581,68.939z"/>
			<path style="opacity:0.07;fill:#FFFFFF;" d="M218.463,68.912c0,1.09-0.958,1.974-2.139,1.974c-1.182,0-2.139-0.884-2.139-1.974
				c0-1.09,0.958-1.974,2.139-1.974C217.506,66.938,218.463,67.822,218.463,68.912z"/>
		</g>
		<g>
			<ellipse style="opacity:0.07;fill:#FFFFFF;" cx="117.5" cy="86.5" rx="8.191" ry="7.557"/>
			<ellipse style="opacity:0.07;fill:#FFFFFF;" cx="117.5" cy="86.5" rx="6.175" ry="5.696"/>
			<path style="opacity:0.07;fill:#FFFFFF;" d="M121.757,86.527c0,2.19-1.924,3.965-4.298,3.965c-2.374,0-4.298-1.775-4.298-3.965
				c0-2.19,1.924-3.965,4.298-3.965C119.833,82.562,121.757,84.337,121.757,86.527z"/>
			<ellipse style="opacity:0.07;fill:#FFFFFF;" cx="117.5" cy="86.5" rx="2.139" ry="1.974"/>
		</g>
		<g>
			<ellipse style="opacity:0.07;fill:#FFFFFF;" cx="173.819" cy="75.517" rx="8.191" ry="7.557"/>
			<path style="opacity:0.07;fill:#FFFFFF;" d="M179.994,75.517c0,3.146-2.764,5.697-6.175,5.697s-6.175-2.55-6.175-5.697
				c0-3.146,2.764-5.697,6.175-5.697S179.994,72.371,179.994,75.517z"/>
			<path style="opacity:0.07;fill:#FFFFFF;" d="M178.076,75.544c0,2.19-1.924,3.965-4.298,3.965s-4.298-1.775-4.298-3.965
				c0-2.19,1.924-3.965,4.298-3.965S178.076,73.354,178.076,75.544z"/>
			<path style="opacity:0.07;fill:#FFFFFF;" d="M175.958,75.517c0,1.09-0.958,1.974-2.139,1.974s-2.139-0.884-2.139-1.974
				c0-1.09,0.958-1.974,2.139-1.974S175.958,74.427,175.958,75.517z"/>
		</g>
		<g>
			<ellipse style="opacity:0.07;fill:#FFFFFF;" cx="273.037" cy="93.868" rx="8.191" ry="7.557"/>
			<ellipse style="opacity:0.07;fill:#FFFFFF;" cx="273.037" cy="93.868" rx="6.175" ry="5.696"/>
			<path style="opacity:0.07;fill:#FFFFFF;" d="M277.294,93.895c0,2.19-1.924,3.965-4.298,3.965s-4.298-1.775-4.298-3.965
				c0-2.19,1.924-3.965,4.298-3.965S277.294,91.706,277.294,93.895z"/>
			<ellipse style="opacity:0.07;fill:#FFFFFF;" cx="273.037" cy="93.868" rx="2.139" ry="1.974"/>
		</g>
		<g>
			<ellipse style="opacity:0.07;fill:#FFFFFF;" cx="348.838" cy="96.973" rx="8.191" ry="7.557"/>
			<path style="opacity:0.07;fill:#FFFFFF;" d="M355.013,96.973c0,3.146-2.764,5.697-6.175,5.697s-6.175-2.55-6.175-5.697
				s2.765-5.697,6.175-5.697S355.013,93.827,355.013,96.973z"/>
			<ellipse style="opacity:0.07;fill:#FFFFFF;" cx="348.798" cy="97" rx="4.298" ry="3.965"/>
			<path style="opacity:0.07;fill:#FFFFFF;" d="M350.977,96.973c0,1.09-0.958,1.974-2.139,1.974c-1.182,0-2.139-0.884-2.139-1.974
				c0-1.09,0.958-1.974,2.139-1.974C350.02,94.999,350.977,95.883,350.977,96.973z"/>
		</g>
		<g>
			<ellipse style="opacity:0.07;fill:#FFFFFF;" cx="372.361" cy="126.5" rx="8.191" ry="7.557"/>
			<path style="opacity:0.07;fill:#FFFFFF;" d="M378.535,126.5c0,3.146-2.765,5.697-6.175,5.697c-3.41,0-6.175-2.55-6.175-5.697
				s2.764-5.697,6.175-5.697C375.771,120.803,378.535,123.354,378.535,126.5z"/>
			<path style="opacity:0.07;fill:#FFFFFF;" d="M376.618,126.527c0,2.19-1.924,3.965-4.297,3.965c-2.374,0-4.298-1.775-4.298-3.965
				c0-2.19,1.924-3.965,4.298-3.965C374.693,122.562,376.618,124.337,376.618,126.527z"/>
			<path style="opacity:0.07;fill:#FFFFFF;" d="M374.5,126.5c0,1.09-0.958,1.974-2.139,1.974c-1.182,0-2.139-0.884-2.139-1.974
				s0.958-1.974,2.139-1.974C373.542,124.526,374.5,125.41,374.5,126.5z"/>
		</g>
		<g>
			<ellipse style="opacity:0.07;fill:#FFFFFF;" cx="423" cy="91.5" rx="8.191" ry="7.557"/>
			<ellipse style="opacity:0.07;fill:#FFFFFF;" cx="423" cy="91.5" rx="6.175" ry="5.696"/>
			<path style="opacity:0.07;fill:#FFFFFF;" d="M427.257,91.527c0,2.19-1.924,3.965-4.298,3.965s-4.298-1.775-4.298-3.965
				c0-2.19,1.924-3.965,4.298-3.965S427.257,89.337,427.257,91.527z"/>
			<ellipse style="opacity:0.07;fill:#FFFFFF;" cx="423" cy="91.5" rx="2.139" ry="1.974"/>
		</g>
		<g>
			<ellipse style="opacity:0.07;fill:#FFFFFF;" cx="310.5" cy="67" rx="8.191" ry="7.557"/>
			<ellipse style="opacity:0.07;fill:#FFFFFF;" cx="310.5" cy="67" rx="6.175" ry="5.696"/>
			<path style="opacity:0.07;fill:#FFFFFF;" d="M314.757,67.027c0,2.19-1.924,3.965-4.298,3.965s-4.298-1.775-4.298-3.965
				c0-2.19,1.924-3.965,4.298-3.965S314.757,64.837,314.757,67.027z"/>
			<ellipse style="opacity:0.07;fill:#FFFFFF;" cx="310.5" cy="67" rx="2.139" ry="1.974"/>
		</g>
		<g>
			<ellipse style="opacity:0.07;fill:#FFFFFF;" cx="347.5" cy="200.5" rx="8.191" ry="7.557"/>
			<ellipse style="opacity:0.07;fill:#FFFFFF;" cx="347.5" cy="200.5" rx="6.175" ry="5.696"/>
			<path style="opacity:0.07;fill:#FFFFFF;" d="M351.757,200.527c0,2.19-1.924,3.965-4.298,3.965s-4.298-1.775-4.298-3.965
				c0-2.19,1.924-3.965,4.298-3.965S351.757,198.337,351.757,200.527z"/>
			<ellipse style="opacity:0.07;fill:#FFFFFF;" cx="347.5" cy="200.5" rx="2.139" ry="1.974"/>
		</g>
		<g>
			<ellipse style="opacity:0.07;fill:#FFFFFF;" cx="372.743" cy="268.473" rx="8.191" ry="7.557"/>
			<path style="opacity:0.07;fill:#FFFFFF;" d="M378.918,268.473c0,3.146-2.764,5.697-6.175,5.697c-3.41,0-6.175-2.551-6.175-5.697
				s2.764-5.697,6.175-5.697C376.153,262.776,378.918,265.327,378.918,268.473z"/>
			<ellipse style="opacity:0.07;fill:#FFFFFF;" cx="372.702" cy="268.5" rx="4.298" ry="3.965"/>
			<path style="opacity:0.07;fill:#FFFFFF;" d="M374.882,268.473c0,1.09-0.958,1.974-2.139,1.974c-1.182,0-2.139-0.884-2.139-1.974
				c0-1.09,0.958-1.974,2.139-1.974C373.924,266.499,374.882,267.383,374.882,268.473z"/>
		</g>
		<g>
			<ellipse style="opacity:0.07;fill:#FFFFFF;" cx="374.243" cy="214.973" rx="8.191" ry="7.557"/>
			<path style="opacity:0.07;fill:#FFFFFF;" d="M380.418,214.973c0,3.146-2.764,5.697-6.175,5.697c-3.41,0-6.175-2.55-6.175-5.697
				s2.764-5.697,6.175-5.697C377.653,209.276,380.418,211.827,380.418,214.973z"/>
			<ellipse style="opacity:0.07;fill:#FFFFFF;" cx="374.202" cy="215" rx="4.298" ry="3.965"/>
			<path style="opacity:0.07;fill:#FFFFFF;" d="M376.382,214.973c0,1.09-0.958,1.974-2.139,1.974c-1.182,0-2.139-0.884-2.139-1.974
				c0-1.09,0.958-1.974,2.139-1.974C375.424,212.999,376.382,213.883,376.382,214.973z"/>
		</g>
		<g>
			<ellipse style="opacity:0.07;fill:#FFFFFF;" cx="312.838" cy="200.473" rx="8.191" ry="7.557"/>
			<path style="opacity:0.07;fill:#FFFFFF;" d="M319.013,200.473c0,3.146-2.764,5.697-6.175,5.697s-6.175-2.55-6.175-5.697
				s2.765-5.697,6.175-5.697S319.013,197.327,319.013,200.473z"/>
			<ellipse style="opacity:0.07;fill:#FFFFFF;" cx="312.798" cy="200.5" rx="4.298" ry="3.965"/>
			<path style="opacity:0.07;fill:#FFFFFF;" d="M314.977,200.473c0,1.09-0.958,1.974-2.139,1.974c-1.182,0-2.139-0.884-2.139-1.974
				c0-1.09,0.958-1.974,2.139-1.974C314.02,198.499,314.977,199.383,314.977,200.473z"/>
		</g>
		<g>
			<ellipse style="opacity:0.07;fill:#FFFFFF;" cx="240.732" cy="248.111" rx="11.387" ry="10.505"/>
			<ellipse style="opacity:0.07;fill:#FFFFFF;" cx="240.732" cy="248.112" rx="8.583" ry="7.919"/>
			<path style="opacity:0.07;fill:#FFFFFF;" d="M246.649,248.149c0,3.044-2.675,5.512-5.974,5.512c-3.299,0-5.974-2.468-5.974-5.512
				c0-3.044,2.675-5.511,5.974-5.511C243.975,242.638,246.649,245.105,246.649,248.149z"/>
			<path style="opacity:0.07;fill:#FFFFFF;" d="M243.706,248.111c0,1.515-1.331,2.744-2.974,2.744c-1.642,0-2.974-1.228-2.974-2.744
				c0-1.515,1.331-2.744,2.974-2.744C242.374,245.368,243.706,246.596,243.706,248.111z"/>
		</g>
		<g>
			<ellipse style="opacity:0.07;fill:#FFFFFF;" cx="89.541" cy="277.438" rx="8.191" ry="7.557"/>
			<ellipse style="opacity:0.07;fill:#FFFFFF;" cx="89.541" cy="277.438" rx="6.175" ry="5.696"/>
			<path style="opacity:0.07;fill:#FFFFFF;" d="M93.798,277.465c0,2.19-1.924,3.965-4.298,3.965c-2.374,0-4.298-1.775-4.298-3.965
				c0-2.19,1.924-3.965,4.298-3.965C91.873,273.5,93.798,275.275,93.798,277.465z"/>
			<path style="opacity:0.07;fill:#FFFFFF;" d="M91.68,277.438c0,1.09-0.958,1.974-2.139,1.974c-1.182,0-2.139-0.884-2.139-1.974
				c0-1.09,0.958-1.974,2.139-1.974C90.722,275.464,91.68,276.348,91.68,277.438z"/>
		</g>
		<g>
			<ellipse style="opacity:0.07;fill:#FFFFFF;" cx="200.243" cy="351.473" rx="8.191" ry="7.557"/>
			<path style="opacity:0.07;fill:#FFFFFF;" d="M206.418,351.473c0,3.146-2.764,5.697-6.175,5.697s-6.175-2.551-6.175-5.697
				s2.764-5.697,6.175-5.697S206.418,348.327,206.418,351.473z"/>
			<ellipse style="opacity:0.07;fill:#FFFFFF;" cx="200.202" cy="351.5" rx="4.298" ry="3.965"/>
			<path style="opacity:0.07;fill:#FFFFFF;" d="M202.382,351.473c0,1.09-0.958,1.974-2.139,1.974c-1.182,0-2.139-0.884-2.139-1.974
				c0-1.09,0.958-1.974,2.139-1.974C201.424,349.499,202.382,350.383,202.382,351.473z"/>
		</g>
		<g>
			<ellipse style="opacity:0.07;fill:#FFFFFF;" cx="161.5" cy="336.974" rx="8.191" ry="7.557"/>
			<path style="opacity:0.07;fill:#FFFFFF;" d="M167.675,336.974c0,3.146-2.765,5.697-6.175,5.697c-3.41,0-6.175-2.55-6.175-5.697
				c0-3.146,2.765-5.697,6.175-5.697C164.91,331.277,167.675,333.828,167.675,336.974z"/>
			<path style="opacity:0.07;fill:#FFFFFF;" d="M165.757,337.001c0,2.19-1.924,3.965-4.298,3.965c-2.374,0-4.298-1.775-4.298-3.965
				c0-2.19,1.924-3.965,4.298-3.965C163.833,333.036,165.757,334.811,165.757,337.001z"/>
			<ellipse style="opacity:0.07;fill:#FFFFFF;" cx="161.5" cy="336.974" rx="2.139" ry="1.974"/>
		</g>
		<g>
			<ellipse style="opacity:0.07;fill:#FFFFFF;" cx="94.743" cy="407.973" rx="8.191" ry="7.557"/>
			<path style="opacity:0.07;fill:#FFFFFF;" d="M100.918,407.973c0,3.146-2.765,5.697-6.175,5.697c-3.41,0-6.175-2.551-6.175-5.697
				s2.765-5.697,6.175-5.697C98.153,402.276,100.918,404.827,100.918,407.973z"/>
			<ellipse style="opacity:0.07;fill:#FFFFFF;" cx="94.702" cy="408" rx="4.298" ry="3.965"/>
			<path style="opacity:0.07;fill:#FFFFFF;" d="M96.882,407.973c0,1.09-0.958,1.974-2.139,1.974c-1.182,0-2.139-0.884-2.139-1.974
				c0-1.09,0.958-1.974,2.139-1.974C95.924,405.999,96.882,406.883,96.882,407.973z"/>
		</g>
		<g>
			<ellipse style="opacity:0.07;fill:#FFFFFF;" cx="70.743" cy="400.973" rx="8.191" ry="7.557"/>
			<path style="opacity:0.07;fill:#FFFFFF;" d="M76.918,400.973c0,3.146-2.765,5.697-6.175,5.697c-3.41,0-6.175-2.551-6.175-5.697
				s2.764-5.697,6.175-5.697C74.153,395.276,76.918,397.827,76.918,400.973z"/>
			<ellipse style="opacity:0.07;fill:#FFFFFF;" cx="70.702" cy="401" rx="4.298" ry="3.965"/>
			<path style="opacity:0.07;fill:#FFFFFF;" d="M72.882,400.973c0,1.09-0.958,1.974-2.139,1.974c-1.182,0-2.139-0.884-2.139-1.974
				c0-1.09,0.958-1.974,2.139-1.974C71.924,398.999,72.882,399.883,72.882,400.973z"/>
		</g>
		<g>
			<ellipse style="opacity:0.07;fill:#FFFFFF;" cx="269.702" cy="385.526" rx="8.191" ry="7.557"/>
			<ellipse style="opacity:0.07;fill:#FFFFFF;" cx="269.702" cy="385.526" rx="6.175" ry="5.696"/>
			<path style="opacity:0.07;fill:#FFFFFF;" d="M273.959,385.553c0,2.19-1.924,3.965-4.298,3.965s-4.298-1.775-4.298-3.965
				c0-2.19,1.924-3.965,4.298-3.965S273.959,383.363,273.959,385.553z"/>
			<path style="opacity:0.07;fill:#FFFFFF;" d="M271.841,385.526c0,1.09-0.958,1.974-2.139,1.974c-1.182,0-2.139-0.884-2.139-1.974
				s0.958-1.974,2.139-1.974C270.883,383.552,271.841,384.436,271.841,385.526z"/>
		</g>
		<g>
			<ellipse style="opacity:0.07;fill:#FFFFFF;" cx="371.743" cy="376.473" rx="8.191" ry="7.557"/>
			<path style="opacity:0.07;fill:#FFFFFF;" d="M377.918,376.473c0,3.146-2.764,5.697-6.175,5.697c-3.41,0-6.175-2.551-6.175-5.697
				s2.764-5.697,6.175-5.697C375.153,370.776,377.918,373.327,377.918,376.473z"/>
			<ellipse style="opacity:0.07;fill:#FFFFFF;" cx="371.702" cy="376.5" rx="4.298" ry="3.965"/>
			<path style="opacity:0.07;fill:#FFFFFF;" d="M373.882,376.473c0,1.09-0.958,1.974-2.139,1.974c-1.182,0-2.139-0.884-2.139-1.974
				c0-1.09,0.958-1.974,2.139-1.974C372.924,374.499,373.882,375.383,373.882,376.473z"/>
		</g>
		<g>
			<ellipse style="opacity:0.07;fill:#FFFFFF;" cx="306.5" cy="416" rx="8.191" ry="7.557"/>
			<ellipse style="opacity:0.07;fill:#FFFFFF;" cx="306.5" cy="416" rx="6.175" ry="5.696"/>
			<path style="opacity:0.07;fill:#FFFFFF;" d="M310.757,416.027c0,2.19-1.924,3.965-4.298,3.965s-4.298-1.775-4.298-3.965
				c0-2.19,1.924-3.965,4.298-3.965S310.757,413.837,310.757,416.027z"/>
			<ellipse style="opacity:0.07;fill:#FFFFFF;" cx="306.5" cy="416" rx="2.139" ry="1.974"/>
		</g>
		<g>
			<ellipse style="opacity:0.07;fill:#FFFFFF;" cx="337.243" cy="450.473" rx="8.191" ry="7.557"/>
			<path style="opacity:0.07;fill:#FFFFFF;" d="M343.418,450.473c0,3.146-2.764,5.697-6.175,5.697c-3.41,0-6.175-2.551-6.175-5.697
				s2.764-5.697,6.175-5.697C340.653,444.776,343.418,447.327,343.418,450.473z"/>
			<ellipse style="opacity:0.07;fill:#FFFFFF;" cx="337.202" cy="450.5" rx="4.298" ry="3.965"/>
			<path style="opacity:0.07;fill:#FFFFFF;" d="M339.382,450.473c0,1.09-0.958,1.974-2.139,1.974c-1.182,0-2.139-0.884-2.139-1.974
				c0-1.09,0.958-1.974,2.139-1.974C338.424,448.499,339.382,449.383,339.382,450.473z"/>
		</g>
		<g>
			<ellipse style="opacity:0.07;fill:#FFFFFF;" cx="415.5" cy="436.5" rx="8.191" ry="7.557"/>
			<ellipse style="opacity:0.07;fill:#FFFFFF;" cx="415.5" cy="436.5" rx="6.175" ry="5.696"/>
			<path style="opacity:0.07;fill:#FFFFFF;" d="M419.757,436.527c0,2.19-1.924,3.965-4.298,3.965s-4.298-1.775-4.298-3.965
				c0-2.19,1.924-3.965,4.298-3.965S419.757,434.337,419.757,436.527z"/>
			<ellipse style="opacity:0.07;fill:#FFFFFF;" cx="415.5" cy="436.5" rx="2.139" ry="1.974"/>
		</g>
		<g>
			<ellipse style="opacity:0.07;fill:#FFFFFF;" cx="313.5" cy="285" rx="8.191" ry="7.557"/>
			<ellipse style="opacity:0.07;fill:#FFFFFF;" cx="313.5" cy="285" rx="6.175" ry="5.696"/>
			<path style="opacity:0.07;fill:#FFFFFF;" d="M317.757,285.027c0,2.19-1.924,3.965-4.298,3.965s-4.298-1.775-4.298-3.965
				c0-2.19,1.924-3.965,4.298-3.965S317.757,282.837,317.757,285.027z"/>
			<ellipse style="opacity:0.07;fill:#FFFFFF;" cx="313.5" cy="285" rx="2.139" ry="1.974"/>
		</g>
		<g>
			<ellipse style="opacity:0.07;fill:#FFFFFF;" cx="356" cy="321" rx="8.191" ry="7.557"/>
			<ellipse style="opacity:0.07;fill:#FFFFFF;" cx="356" cy="321" rx="6.175" ry="5.696"/>
			<path style="opacity:0.07;fill:#FFFFFF;" d="M360.257,321.027c0,2.19-1.924,3.965-4.298,3.965s-4.298-1.775-4.298-3.965
				c0-2.19,1.924-3.965,4.298-3.965S360.257,318.837,360.257,321.027z"/>
			<ellipse style="opacity:0.07;fill:#FFFFFF;" cx="356" cy="321" rx="2.139" ry="1.974"/>
		</g>
		<g>
			<ellipse style="opacity:0.07;fill:#FFFFFF;" cx="451" cy="286" rx="8.191" ry="7.557"/>
			<ellipse style="opacity:0.07;fill:#FFFFFF;" cx="451" cy="286" rx="6.175" ry="5.696"/>
			<path style="opacity:0.07;fill:#FFFFFF;" d="M455.257,286.027c0,2.19-1.924,3.965-4.298,3.965s-4.298-1.775-4.298-3.965
				c0-2.19,1.924-3.965,4.298-3.965S455.257,283.837,455.257,286.027z"/>
			<ellipse style="opacity:0.07;fill:#FFFFFF;" cx="451" cy="286" rx="2.139" ry="1.974"/>
		</g>
		<g>
			<ellipse style="opacity:0.07;fill:#FFFFFF;" cx="433.488" cy="376.488" rx="8.191" ry="7.557"/>
			<ellipse style="opacity:0.07;fill:#FFFFFF;" cx="433.488" cy="376.488" rx="6.175" ry="5.696"/>
			<path style="opacity:0.07;fill:#FFFFFF;" d="M437.745,376.515c0,2.19-1.924,3.965-4.298,3.965s-4.298-1.775-4.298-3.965
				c0-2.19,1.924-3.965,4.298-3.965S437.745,374.325,437.745,376.515z"/>
			<ellipse style="opacity:0.07;fill:#FFFFFF;" cx="433.488" cy="376.488" rx="2.139" ry="1.974"/>
		</g>
		<g>
			<g id="XMLID_24_">
				<g id="XMLID_210_">
					<path id="XMLID_278_" style="fill:#F9F7F9;" d="M257.104,468.92c-0.432,0.443-0.803,0.931-1.108,1.453l-0.465-0.241
						c-0.067-0.298-0.349-0.503-0.659-0.466c-0.331,0.039-0.568,0.339-0.529,0.67s0.339,0.568,0.67,0.529
						c0.065-0.008,0.127-0.026,0.184-0.052l0.451,0.234c-0.251,0.554-0.433,1.139-0.539,1.744l0.747,0.132
						c0.23-1.306,0.85-2.507,1.792-3.473L257.104,468.92z"/>
					<path id="XMLID_277_" style="fill:#F9F7F9;" d="M262.592,466.618c-0.171,0-0.341,0.006-0.51,0.017l-0.074-0.626
						c0.188-0.149,0.296-0.389,0.266-0.645c-0.046-0.393-0.402-0.674-0.795-0.628c-0.393,0.046-0.674,0.402-0.628,0.795
						c0.03,0.254,0.189,0.461,0.405,0.564l0.073,0.624c-0.714,0.116-1.403,0.332-2.06,0.646l0.327,0.684
						c0.934-0.447,1.942-0.673,2.995-0.673c0.496,0,0.993,0.053,1.475,0.158l0.161-0.741
						C263.692,466.677,263.142,466.618,262.592,466.618z"/>
					<path id="XMLID_265_" style="fill:#F9F7F9;" d="M269.194,469.165c0.331-0.04,0.566-0.341,0.526-0.672
						c-0.04-0.331-0.341-0.566-0.672-0.526c-0.309,0.038-0.535,0.304-0.53,0.609l-0.416,0.363c-0.418-0.43-0.89-0.813-1.408-1.139
						l-0.404,0.641c1.134,0.715,2.021,1.726,2.563,2.925l0.691-0.313c-0.251-0.554-0.568-1.072-0.942-1.545l0.402-0.351
						C269.065,469.17,269.129,469.173,269.194,469.165z"/>
					<path id="XMLID_264_" style="fill:#F9F7F9;" d="M262.044,476.827c-0.386,0.023-0.775,0.035-1.157,0.035
						c-0.88,0-1.733-0.061-2.478-0.179c-0.39-0.062-0.846-0.155-1.27-0.292c1.046,1.861,3.069,3.125,5.388,3.125
						c2.855,0,5.262-1.916,5.95-4.504c-0.682,0.449-1.505,0.825-2.459,1.123C264.839,476.502,263.464,476.741,262.044,476.827z"/>
					<path id="XMLID_233_" style="fill:#F9F7F9;" d="M262.592,468.134c-3.352,0-6.08,2.666-6.08,5.943
						c0,0.426,0.046,0.849,0.137,1.261c0.673,0.483,2.706,0.89,5.348,0.731c2.879-0.173,5.297-0.957,6.672-2.159
						c-0.005-0.195-0.021-0.39-0.045-0.582C268.244,470.368,265.65,468.134,262.592,468.134z M260.432,474.649
						c-1.02,0-1.85-0.83-1.85-1.85c0-1.02,0.83-1.85,1.85-1.85c1.02,0,1.85,0.83,1.85,1.85
						C262.282,473.819,261.452,474.649,260.432,474.649z M265.17,473.741c-0.75,0-1.36-0.61-1.36-1.36s0.61-1.361,1.36-1.361
						c0.75,0,1.361,0.61,1.361,1.361S265.92,473.741,265.17,473.741z"/>
				</g>
				<path id="XMLID_209_" style="fill:#F9F7F9;" d="M278.595,470.001c-0.295-0.116-0.805-0.309-1.382-0.237
					c-0.551,0.069-0.844,0.341-0.844,1.007v0.866h2.228v1.717h-2.228v5.455h-1.932v-5.455h-1.34v-1.717h1.34v-0.888
					c0-1.68,0.896-2.783,2.568-2.783c0.643,0,1.157,0.122,1.59,0.308L278.595,470.001z"/>
				<path id="XMLID_180_" style="fill:#F9F7F9;" d="M283.298,473.333c-0.177-0.03-0.358-0.046-0.526-0.046
					c-0.896,0-1.51,0.548-1.51,1.613v3.908h-1.932v-7.172h1.873v0.785c0.451-0.673,1.14-0.977,2.021-0.977
					c0.414,0,0.848,0.128,1.094,0.337L283.298,473.333z"/>
				<path id="XMLID_141_" style="fill:#F9F7F9;" d="M290.965,475.212c0,0.222-0.015,0.489-0.037,0.651h-5.085
					c0.207,1.036,0.933,1.488,1.843,1.488c0.622,0,1.295-0.252,1.813-0.688l1.132,1.243c-0.814,0.748-1.85,1.088-3.057,1.088
					c-2.198,0-3.723-1.495-3.723-3.753c0-2.258,1.48-3.797,3.627-3.797C289.544,471.444,290.958,472.976,290.965,475.212z
					 M285.851,474.546h3.175c-0.177-0.918-0.733-1.436-1.562-1.436C286.554,473.11,286.021,473.657,285.851,474.546z"/>
				<path id="XMLID_69_" style="fill:#F9F7F9;" d="M298.618,475.212c0,0.222-0.015,0.489-0.037,0.651h-5.085
					c0.207,1.036,0.933,1.488,1.843,1.488c0.622,0,1.295-0.252,1.813-0.688l1.132,1.243c-0.814,0.748-1.85,1.088-3.057,1.088
					c-2.198,0-3.723-1.495-3.723-3.753c0-2.258,1.48-3.797,3.627-3.797C297.197,471.444,298.611,472.976,298.618,475.212z
					 M293.504,474.546h3.175c-0.178-0.918-0.733-1.436-1.562-1.436C294.207,473.11,293.674,473.657,293.504,474.546z"/>
				<path id="XMLID_325_" style="fill:#F9F7F9;" d="M306.964,475.219c0,2.154-1.495,3.775-3.471,3.775
					c-0.962,0-1.643-0.378-2.109-0.933v3.708h-1.924v-10.133h1.887v0.792c0.466-0.585,1.155-0.984,2.139-0.984
					C305.469,471.444,306.964,473.065,306.964,475.219z M301.287,475.219c0,1.132,0.747,1.976,1.843,1.976
					c1.14,0,1.85-0.881,1.85-1.976c0-1.095-0.71-1.976-1.85-1.976C302.035,473.243,301.287,474.087,301.287,475.219z"/>
				<path id="XMLID_35_" style="fill:#F9F7F9;" d="M310.068,469.29c0,0.696-0.54,1.229-1.236,1.229
					c-0.696,0-1.229-0.533-1.229-1.229c0-0.696,0.533-1.243,1.229-1.243C309.527,468.047,310.068,468.595,310.068,469.29z
					 M309.809,478.809h-1.932v-7.172h1.932V478.809z"/>
				<path id="XMLID_25_" style="fill:#F9F7F9;" d="M313.032,474.19l2.701-2.554h2.369l-3.479,3.375l3.501,3.797h-2.376l-2.716-2.901
					v2.901H311.1v-10.658h1.932V474.19z"/>
			</g>
			<g>
				<path style="fill:#F9F7F9;" d="M181.412,478.744v-1.055c-0.527,0.718-1.391,1.23-2.387,1.23c-1.846,0-3.149-1.406-3.149-3.706
					c0-2.256,1.289-3.721,3.149-3.721c0.952,0,1.816,0.469,2.387,1.245v-3.765h1.099v9.77H181.412z M181.412,476.825v-3.208
					c-0.395-0.615-1.245-1.143-2.124-1.143c-1.421,0-2.27,1.172-2.27,2.739c0,1.567,0.85,2.724,2.27,2.724
					C180.168,477.938,181.017,477.44,181.412,476.825z"/>
				<path style="fill:#F9F7F9;" d="M183.932,475.199c0-2.051,1.465-3.706,3.486-3.706c2.139,0,3.398,1.67,3.398,3.794v0.279h-5.727
					c0.088,1.333,1.025,2.446,2.549,2.446c0.805,0,1.626-0.322,2.182-0.894l0.527,0.718c-0.703,0.703-1.655,1.084-2.812,1.084
					C185.44,478.919,183.932,477.411,183.932,475.199z M187.403,472.401c-1.509,0-2.256,1.274-2.314,2.358h4.643
					C189.718,473.705,189.015,472.401,187.403,472.401z"/>
				<path style="fill:#F9F7F9;" d="M191.607,477.806l0.571-0.791c0.469,0.542,1.362,1.011,2.329,1.011
					c1.084,0,1.67-0.513,1.67-1.216c0-1.714-4.38-0.659-4.38-3.281c0-1.098,0.952-2.036,2.636-2.036
					c1.201,0,2.051,0.454,2.622,1.025l-0.513,0.762c-0.424-0.513-1.201-0.894-2.109-0.894c-0.967,0-1.567,0.483-1.567,1.113
					c0,1.552,4.38,0.527,4.38,3.281c0,1.187-0.952,2.138-2.783,2.138C193.306,478.919,192.325,478.568,191.607,477.806z"/>
				<path style="fill:#F9F7F9;" d="M198.477,469.926c0-0.41,0.337-0.747,0.732-0.747c0.41,0,0.747,0.337,0.747,0.747
					c0,0.41-0.337,0.732-0.747,0.732C198.814,470.658,198.477,470.336,198.477,469.926z M198.667,478.744v-7.075h1.099v7.075
					H198.667z"/>
				<path style="fill:#F9F7F9;" d="M201.582,480.56l0.556-0.82c0.586,0.703,1.289,0.967,2.3,0.967c1.172,0,2.27-0.571,2.27-2.124
					v-1.011c-0.513,0.718-1.377,1.26-2.373,1.26c-1.845,0-3.149-1.377-3.149-3.662c0-2.27,1.289-3.676,3.149-3.676
					c0.952,0,1.802,0.469,2.373,1.245v-1.069h1.098v6.87c0,2.344-1.641,3.076-3.369,3.076
					C203.237,481.615,202.417,481.38,201.582,480.56z M206.709,476.708v-3.091c-0.381-0.615-1.23-1.143-2.109-1.143
					c-1.421,0-2.27,1.128-2.27,2.695c0,1.553,0.849,2.695,2.27,2.695C205.478,477.865,206.328,477.323,206.709,476.708z"/>
				<path style="fill:#F9F7F9;" d="M214.413,478.744v-4.629c0-1.245-0.63-1.641-1.582-1.641c-0.865,0-1.685,0.527-2.095,1.099v5.17
					h-1.099v-7.075h1.099v1.025c0.498-0.586,1.465-1.201,2.519-1.201c1.48,0,2.256,0.747,2.256,2.285v4.966H214.413z"/>
				<path style="fill:#F9F7F9;" d="M216.932,475.199c0-2.051,1.465-3.706,3.486-3.706c2.139,0,3.398,1.67,3.398,3.794v0.279h-5.727
					c0.088,1.333,1.025,2.446,2.549,2.446c0.806,0,1.626-0.322,2.183-0.894l0.527,0.718c-0.703,0.703-1.655,1.084-2.812,1.084
					C218.441,478.919,216.932,477.411,216.932,475.199z M220.404,472.401c-1.509,0-2.256,1.274-2.314,2.358h4.643
					C222.718,473.705,222.015,472.401,220.404,472.401z"/>
				<path style="fill:#F9F7F9;" d="M230.35,478.744v-1.055c-0.527,0.718-1.392,1.23-2.388,1.23c-1.846,0-3.149-1.406-3.149-3.706
					c0-2.256,1.289-3.721,3.149-3.721c0.952,0,1.817,0.469,2.388,1.245v-3.765h1.098v9.77H230.35z M230.35,476.825v-3.208
					c-0.396-0.615-1.245-1.143-2.124-1.143c-1.421,0-2.27,1.172-2.27,2.739c0,1.567,0.849,2.724,2.27,2.724
					C229.105,477.938,229.954,477.44,230.35,476.825z"/>
				<path style="fill:#F9F7F9;" d="M236.692,478.744v-9.77h1.098v3.765c0.572-0.776,1.421-1.245,2.388-1.245
					c1.845,0,3.149,1.465,3.149,3.721c0,2.299-1.304,3.706-3.149,3.706c-0.996,0-1.86-0.513-2.388-1.23v1.055H236.692z
					 M239.9,477.938c1.436,0,2.285-1.157,2.285-2.724c0-1.568-0.85-2.739-2.285-2.739c-0.864,0-1.728,0.527-2.109,1.143v3.208
					C238.171,477.44,239.036,477.938,239.9,477.938z"/>
				<path style="fill:#F9F7F9;" d="M244.528,480.516c0.161,0.073,0.425,0.117,0.601,0.117c0.483,0,0.805-0.161,1.055-0.747
					l0.469-1.069l-2.959-7.148h1.187l2.358,5.8l2.344-5.8h1.201l-3.545,8.51c-0.425,1.025-1.143,1.421-2.08,1.435
					c-0.234,0-0.601-0.044-0.806-0.103L244.528,480.516z"/>
			</g>
		</g>
	</g>
</g>
</svg>
