<?xml version="1.0" encoding="utf-8"?>
<!-- Generator: Adobe Illustrator 27.5.0, SVG Export Plug-In . SVG Version: 6.00 Build 0)  -->
<svg version="1.1" xmlns="http://www.w3.org/2000/svg" xmlns:xlink="http://www.w3.org/1999/xlink" x="0px" y="0px"
	 viewBox="0 0 500 500">
<g id="OBJECTS">
	<g>
		<defs>
			<path id="XMLID_1_" d="M31.202,162.65c0,0,3.169-2.535,8.081,6.021c4.912,8.556,9.665-0.158,12.835,3.169
				c3.169,3.327,4.912,5.07,4.278,8.715c-0.634,3.644,0.317,11.725,1.426,7.923c1.109-3.803-0.475-15.053,2.852-16.162
				c3.327-1.109,3.803-0.475,7.447,4.12c3.644,4.595,8.556-4.278,11.567-3.327c3.011,0.951,5.387-2.377,8.398,0.317
				c3.011,2.694,1.585,21.233,4.12,17.588c2.535-3.644,1.426-15.37,3.169-13.31c1.743,2.06,3.961,6.497,5.387-1.901
				c1.426-8.398,3.803-4.912,7.447-1.901c3.644,3.011,6.496,2.535,8.715-0.792c2.218-3.327,7.447,2.852,9.349,15.687
				c1.901,12.835,2.535,2.06,3.486-3.803c0.951-5.863,2.852-10.141,5.863-6.813c3.011,3.327,1.743,7.764,3.961,9.507
				c2.218,1.743,1.901,16.321,3.486,13.469c1.585-2.852,0.475-17.747,2.694-19.173c2.218-1.426,1.268-7.606,5.704-6.497
				c4.437,1.109,5.229,10.933,8.081,8.398c2.852-2.535,4.12,11.725,7.13,10.616c3.011-1.109,0.159,34.384,3.961,36.602
				c3.803,2.218,0.634-36.761,3.486-39.613c2.852-2.852,7.606-4.754,8.556-10.933c0.951-6.18,8.24-17.271,9.982-9.507
				c1.743,7.764,6.655,8.081,6.497,14.736c-0.158,6.655,1.268,12.835,2.377,8.081c1.109-4.754-0.634-12.993,4.12-15.845
				c4.753-2.852,3.011-9.982,8.398-10.616c5.387-0.634,12.676-5.229,14.578-3.961c0,0-2.694-4.278-10.141-4.278
				c-7.447,0-12.676-7.764-23.768-2.852c-11.092,4.912-36.761-3.327-43.574,0.951c-6.813,4.278-4.912-5.546-26.937-0.475
				c-22.025,5.07-21.866-5.863-37.712,0.317c-15.845,6.18-25.828-2.06-35.176,2.06C41.977,163.284,33.896,155.52,31.202,162.65z"/>
		</defs>
		<use xlink:href="#XMLID_1_"  style="overflow:visible;fill:#FEFDFD;"/>
		<clipPath id="XMLID_00000048496165867077639440000017754464195398370695_">
			<use xlink:href="#XMLID_1_"  style="overflow:visible;"/>
		</clipPath>
		<path style="clip-path:url(#XMLID_00000048496165867077639440000017754464195398370695_);fill:#D8ECF5;" d="M31.202,159.758
			c0.594,0,5.229,0.238,9.864,5.585c4.635,5.348,6.774,1.783,9.745,1.545c2.971-0.238,4.278,7.725,6.061,3.209
			c1.783-4.516,4.991-3.922,7.962-0.713c2.971,3.209,6.417,3.327,9.507,0.951c3.09-2.377,10.577-4.872,14.142-1.188
			c3.565,3.684,3.803,5.585,6.061,2.852c2.258-2.733,7.368-6.536,11.765-4.159c4.397,2.377,11.765-4.516,16.4-0.713
			c4.635,3.803,4.041,6.774,7.13,2.852c3.09-3.922,9.151,2.615,10.695,6.655c1.545,4.04,3.446-1.664,5.229-5.467
			c1.783-3.803,6.299-2.971,9.032,1.07c2.733,4.041,6.655,6.417,9.626,4.397c2.971-2.02,1.783,9.269,6.536,6.061
			c4.754-3.209,6.655-16.519,13.548-17.707c6.893-1.188,10.577-0.594,12.953,3.565c2.377,4.159,4.278,4.041,5.585-0.119
			c1.307-4.159,8.319-4.397,12.716-6.536c4.397-2.139,10.339-1.307,1.664-5.229c-8.675-3.922,19.49,1.783,19.49,1.783l-0.238,11.409
			l-9.864,10.933l-11.646,23.768l-15.449,19.608c0,0-10.101,10.696-23.768,11.884c-13.667,1.188-44.089-7.487-44.089-7.487
			L83.372,216.92l-47.654-20.678L24.19,166.889L31.202,159.758z"/>
		<path style="clip-path:url(#XMLID_00000048496165867077639440000017754464195398370695_);fill:#ADD3E7;" d="M31.558,163.561
			c0,0,1.664-3.327,5.585,0.713s3.327,8.081,8.556,6.417c5.229-1.664,7.606-2.258,9.507,1.783c1.901,4.04,1.783,8.081,2.971,0.119
			c1.188-7.962,8.319,0.357,10.933,2.377c2.614,2.02,7.962-4.04,11.527-3.803c3.565,0.238,6.536-2.139,8.556,0.475
			c2.02,2.615,2.377,14.023,3.327,5.942s6.061,4.397,6.655-2.139c0.594-6.536,3.09-7.606,7.487-4.991
			c4.397,2.614,6.655,3.684,9.745,0.475c3.09-3.209,8.319-0.594,9.269,4.991c0.951,5.585,2.377,10.339,3.209,1.901
			c0.832-8.438,9.151-4.516,9.626,0.238c0.475,4.753,0.357,6.298,1.545,7.606c1.188,1.307,2.377,15.092,3.209,3.684
			c0.832-11.409,1.901-8.556,2.852-12.122c0.951-3.565,4.397-6.655,6.893-2.971c2.496,3.684,5.229,8.2,7.012,6.655
			c1.783-1.545,3.803,2.377,4.278,4.991c0.475,2.614,1.426,6.774,2.615,5.942c1.188-0.832,3.09,3.803,3.209,14.617
			c0.119,10.814,0.238,22.223,1.307,15.33c1.069-6.893-1.188-30.185,1.188-32.205c2.377-2.02,6.417-3.922,6.655-6.536
			s4.754-16.162,9.864-16.162c5.11,0,4.278,0.594,6.18,5.823c1.901,5.229,4.278,4.04,4.991,6.655
			c0.713,2.614-0.119,13.191,0.713,8.438c0.832-4.754,1.07-10.339,3.327-11.765c2.258-1.426,4.159-9.745,8.556-10.22
			c4.397-0.475,12.478-5.704,17.232-0.713c4.754,4.991-18.658,46.942-18.658,46.942l-15.687,25.313l-39.692,4.159L30.251,190.3
			L31.558,163.561z"/>
	</g>
</g>
</svg>
